<?xml version="1.0" encoding="UTF-8" standalone="no"?>
<!DOCTYPE svg PUBLIC "-//W3C//DTD SVG 1.1//EN"
 "http://www.w3.org/Graphics/SVG/1.1/DTD/svg11.dtd">
<!-- Generated by graphviz version 14.1.5 (0)
 -->
<!-- Title: ESNModel Pages: 1 -->
<svg width="695pt" height="175pt"
 viewBox="0.00 0.00 695.00 175.00" xmlns="http://www.w3.org/2000/svg" xmlns:xlink="http://www.w3.org/1999/xlink">
<g id="graph0" class="graph" transform="scale(1 1) rotate(0) translate(28.8 145.8)">
<title>ESNModel</title>
<polygon fill="white" stroke="none" points="-28.8,28.8 -28.8,-145.8 666.59,-145.8 666.59,28.8 -28.8,28.8"/>
<!-- Input_1 -->
<g id="node1" class="node">
<title>Input_1</title>
<ellipse fill="#f7c5f1" stroke="#841777" stroke-width="1.5" cx="29.9" cy="-57" rx="29.9" ry="18"/>
<text xml:space="preserve" text-anchor="middle" x="29.9" y="-51.2" font-family="Helvetica Neue,Helvetica,Arial,sans-serif" font-size="14.00" fill="#1a2332">Input</text>
</g>
<!-- ESNLayer_1 -->
<g id="node2" class="node">
<title>ESNLayer_1</title>
<path fill="#e2f7c5" stroke="#578417" stroke-width="1.5" d="M183.29,-75C183.29,-75 129.79,-75 129.79,-75 123.79,-75 117.79,-69 117.79,-63 117.79,-63 117.79,-51 117.79,-51 117.79,-45 123.79,-39 129.79,-39 129.79,-39 183.29,-39 183.29,-39 189.29,-39 195.29,-45 195.29,-51 195.29,-51 195.29,-63 195.29,-63 195.29,-69 189.29,-75 183.29,-75"/>
<text xml:space="preserve" text-anchor="middle" x="156.54" y="-51.2" font-family="Helvetica Neue,Helvetica,Arial,sans-serif" font-size="14.00" fill="#1a2332">ESNLayer</text>
</g>
<!-- Input_1&#45;&gt;ESNLayer_1 -->
<g id="edge1" class="edge">
<title>Input_1&#45;&gt;ESNLayer_1</title>
<path fill="none" stroke="#8b9cb6" stroke-width="1.2" d="M60.44,-57C74.91,-57 92.67,-57 108.91,-57"/>
<polygon fill="#8b9cb6" stroke="#8b9cb6" stroke-width="1.2" points="115.78,-57 108.78,-60.15 113.74,-57.1 108.78,-57.1 108.78,-57 108.78,-56.9 113.74,-56.9 108.78,-53.85 115.78,-57"/>
</g>
<!-- Power_1 -->
<g id="node3" class="node">
<title>Power_1</title>
<path fill="#c5f7ef" stroke="#178472" stroke-width="1.5" d="M295.54,-117C295.54,-117 265.29,-117 265.29,-117 259.29,-117 253.29,-111 253.29,-105 253.29,-105 253.29,-93 253.29,-93 253.29,-87 259.29,-81 265.29,-81 265.29,-81 295.54,-81 295.54,-81 301.54,-81 307.54,-87 307.54,-93 307.54,-93 307.54,-105 307.54,-105 307.54,-111 301.54,-117 295.54,-117"/>
<text xml:space="preserve" text-anchor="middle" x="280.42" y="-93.2" font-family="Helvetica Neue,Helvetica,Arial,sans-serif" font-size="14.00" fill="#1a2332">Power</text>
</g>
<!-- ESNLayer_1&#45;&gt;Power_1 -->
<g id="edge2" class="edge">
<title>ESNLayer_1&#45;&gt;Power_1</title>
<path fill="none" stroke="#8b9cb6" stroke-width="1.2" d="M195.77,-70.17C211.59,-75.62 229.78,-81.89 245.15,-87.19"/>
<polygon fill="#8b9cb6" stroke="#8b9cb6" stroke-width="1.2" points="251.52,-89.39 243.88,-90.08 249.56,-88.82 244.87,-87.2 244.91,-87.11 244.94,-87.01 249.63,-88.63 245.93,-84.13 251.52,-89.39"/>
</g>
<!-- Concatenate_1 -->
<g id="node4" class="node">
<title>Concatenate_1</title>
<path fill="#c5d4f7" stroke="#173784" stroke-width="1.5" d="M446.04,-75C446.04,-75 377.54,-75 377.54,-75 371.54,-75 365.54,-69 365.54,-63 365.54,-63 365.54,-51 365.54,-51 365.54,-45 371.54,-39 377.54,-39 377.54,-39 446.04,-39 446.04,-39 452.04,-39 458.04,-45 458.04,-51 458.04,-51 458.04,-63 458.04,-63 458.04,-69 452.04,-75 446.04,-75"/>
<text xml:space="preserve" text-anchor="middle" x="411.79" y="-51.2" font-family="Helvetica Neue,Helvetica,Arial,sans-serif" font-size="14.00" fill="#1a2332">Concatenate</text>
</g>
<!-- ESNLayer_1&#45;&gt;Concatenate_1 -->
<g id="edge3" class="edge">
<title>ESNLayer_1&#45;&gt;Concatenate_1</title>
<path fill="none" stroke="#8b9cb6" stroke-width="1.2" d="M196.01,-57C238.82,-57 308.33,-57 356.64,-57"/>
<polygon fill="#8b9cb6" stroke="#8b9cb6" stroke-width="1.2" points="363.64,-57 356.64,-60.15 361.6,-57.1 356.64,-57.1 356.64,-57 356.64,-56.9 361.6,-56.9 356.64,-53.85 363.64,-57"/>
</g>
<!-- Power_1&#45;&gt;Concatenate_1 -->
<g id="edge4" class="edge">
<title>Power_1&#45;&gt;Concatenate_1</title>
<path fill="none" stroke="#8b9cb6" stroke-width="1.2" d="M308.23,-90.3C322.41,-85.69 340.35,-79.87 357.24,-74.39"/>
<polygon fill="#8b9cb6" stroke="#8b9cb6" stroke-width="1.2" points="363.52,-72.35 357.83,-77.5 361.61,-73.07 356.89,-74.6 356.86,-74.51 356.83,-74.41 361.55,-72.88 355.89,-71.51 363.52,-72.35"/>
</g>
<!-- CGReadoutLayer_1 -->
<g id="node5" class="node">
<title>CGReadoutLayer_1</title>
<path fill="#f7c5c5" stroke="#841717" stroke-width="1.5" d="M625.79,-115C625.79,-115 528.04,-115 528.04,-115 522.04,-115 516.04,-109 516.04,-103 516.04,-103 516.04,-91 516.04,-91 516.04,-85 522.04,-79 528.04,-79 528.04,-79 625.79,-79 625.79,-79 631.79,-79 637.79,-85 637.79,-91 637.79,-91 637.79,-103 637.79,-103 637.79,-109 631.79,-115 625.79,-115"/>
<text xml:space="preserve" text-anchor="middle" x="576.92" y="-91.2" font-family="Helvetica Neue,Helvetica,Arial,sans-serif" font-size="14.00" fill="#1a2332">CGReadoutLayer</text>
</g>
<!-- Concatenate_1&#45;&gt;CGReadoutLayer_1 -->
<g id="edge5" class="edge">
<title>Concatenate_1&#45;&gt;CGReadoutLayer_1</title>
<path fill="none" stroke="#8b9cb6" stroke-width="1.2" d="M458.67,-68.25C473.81,-71.96 491,-76.18 507.46,-80.21"/>
<polygon fill="#8b9cb6" stroke="#8b9cb6" stroke-width="1.2" points="514.05,-81.83 506.5,-83.22 512.04,-81.44 507.22,-80.26 507.25,-80.16 507.27,-80.06 512.09,-81.25 508,-77.1 514.05,-81.83"/>
</g>
<!-- CGReadoutLayer_2 -->
<g id="node6" class="node">
<title>CGReadoutLayer_2</title>
<path fill="#f7c5c5" stroke="#841717" stroke-width="1.5" d="M625.79,-36C625.79,-36 528.04,-36 528.04,-36 522.04,-36 516.04,-30 516.04,-24 516.04,-24 516.04,-12 516.04,-12 516.04,-6 522.04,0 528.04,0 528.04,0 625.79,0 625.79,0 631.79,0 637.79,-6 637.79,-12 637.79,-12 637.79,-24 637.79,-24 637.79,-30 631.79,-36 625.79,-36"/>
<text xml:space="preserve" text-anchor="middle" x="576.92" y="-12.2" font-family="Helvetica Neue,Helvetica,Arial,sans-serif" font-size="14.00" fill="#1a2332">CGReadoutLayer</text>
</g>
<!-- Concatenate_1&#45;&gt;CGReadoutLayer_2 -->
<g id="edge6" class="edge">
<title>Concatenate_1&#45;&gt;CGReadoutLayer_2</title>
<path fill="none" stroke="#8b9cb6" stroke-width="1.2" d="M458.67,-46.03C473.81,-42.41 491,-38.3 507.46,-34.37"/>
<polygon fill="#8b9cb6" stroke="#8b9cb6" stroke-width="1.2" points="514.04,-32.79 507.97,-37.48 512.09,-33.36 507.26,-34.52 507.24,-34.42 507.21,-34.32 512.04,-33.17 506.5,-31.36 514.04,-32.79"/>
</g>
</g>
</svg>
