<?xml version="1.0" encoding="UTF-8" standalone="no"?>
<!DOCTYPE svg PUBLIC "-//W3C//DTD SVG 1.1//EN"
 "http://www.w3.org/Graphics/SVG/1.1/DTD/svg11.dtd">
<!-- Generated by graphviz version 14.1.5 (0)
 -->
<!-- Title: ESNModel Pages: 1 -->
<svg width="714pt" height="140pt"
 viewBox="0.00 0.00 714.00 140.00" xmlns="http://www.w3.org/2000/svg" xmlns:xlink="http://www.w3.org/1999/xlink">
<g id="graph0" class="graph" transform="scale(1 1) rotate(0) translate(28.8 111.67)">
<title>ESNModel</title>
<polygon fill="white" stroke="none" points="-28.8,28.8 -28.8,-111.67 685.69,-111.67 685.69,28.8 -28.8,28.8"/>
<!-- Input_1 -->
<g id="node1" class="node">
<title>Input_1</title>
<ellipse fill="#f7c5f1" stroke="#841777" stroke-width="1.5" cx="44.19" cy="-26.87" rx="44.19" ry="26.87"/>
<text xml:space="preserve" text-anchor="middle" x="44.19" y="-28.57" font-family="Helvetica Neue,Helvetica,Arial,sans-serif" font-size="14.00" fill="#1a2332">Input</text>
<text xml:space="preserve" text-anchor="middle" x="44.19" y="-13.57" font-family="Helvetica Neue,Helvetica,Arial,sans-serif" font-size="14.00" fill="#1a2332">(1, 1, 3)</text>
</g>
<!-- ESNLayer_1 -->
<g id="node2" class="node">
<title>ESNLayer_1</title>
<path fill="#e2f7c5" stroke="#578417" stroke-width="1.5" d="M242.64,-82.87C242.64,-82.87 189.14,-82.87 189.14,-82.87 183.14,-82.87 177.14,-76.87 177.14,-70.87 177.14,-70.87 177.14,-56.87 177.14,-56.87 177.14,-50.87 183.14,-44.87 189.14,-44.87 189.14,-44.87 242.64,-44.87 242.64,-44.87 248.64,-44.87 254.64,-50.87 254.64,-56.87 254.64,-56.87 254.64,-70.87 254.64,-70.87 254.64,-76.87 248.64,-82.87 242.64,-82.87"/>
<text xml:space="preserve" text-anchor="middle" x="215.89" y="-65.57" font-family="Helvetica Neue,Helvetica,Arial,sans-serif" font-size="14.00" fill="#1a2332">ESNLayer</text>
<text xml:space="preserve" text-anchor="middle" x="215.89" y="-50.57" font-family="Helvetica Neue,Helvetica,Arial,sans-serif" font-size="14.00" fill="#1a2332">(1, 1, 64)</text>
</g>
<!-- Input_1&#45;&gt;ESNLayer_1 -->
<g id="edge1" class="edge">
<title>Input_1&#45;&gt;ESNLayer_1</title>
<path fill="none" stroke="#8b9cb6" stroke-width="1.2" d="M86.27,-35.83C111.06,-41.23 142.7,-48.13 168.4,-53.73"/>
<polygon fill="#8b9cb6" stroke="#8b9cb6" stroke-width="1.2" points="175.09,-55.19 167.58,-56.78 173.07,-54.86 168.23,-53.8 168.25,-53.7 168.27,-53.6 173.12,-54.66 168.92,-50.62 175.09,-55.19"/>
<text xml:space="preserve" text-anchor="middle" x="132.76" y="-49.88" font-family="Helvetica Neue,Helvetica,Arial,sans-serif" font-size="9.00" fill="#8b9cb6">(1, 1, 3)</text>
</g>
<!-- Concatenate_1 -->
<g id="node3" class="node">
<title>Concatenate_1</title>
<path fill="#c5d4f7" stroke="#173784" stroke-width="1.5" d="M429.14,-45.87C429.14,-45.87 360.64,-45.87 360.64,-45.87 354.64,-45.87 348.64,-39.87 348.64,-33.87 348.64,-33.87 348.64,-19.87 348.64,-19.87 348.64,-13.87 354.64,-7.87 360.64,-7.87 360.64,-7.87 429.14,-7.87 429.14,-7.87 435.14,-7.87 441.14,-13.87 441.14,-19.87 441.14,-19.87 441.14,-33.87 441.14,-33.87 441.14,-39.87 435.14,-45.87 429.14,-45.87"/>
<text xml:space="preserve" text-anchor="middle" x="394.89" y="-28.57" font-family="Helvetica Neue,Helvetica,Arial,sans-serif" font-size="14.00" fill="#1a2332">Concatenate</text>
<text xml:space="preserve" text-anchor="middle" x="394.89" y="-13.57" font-family="Helvetica Neue,Helvetica,Arial,sans-serif" font-size="14.00" fill="#1a2332">(1, 1, 67)</text>
</g>
<!-- Input_1&#45;&gt;Concatenate_1 -->
<g id="edge2" class="edge">
<title>Input_1&#45;&gt;Concatenate_1</title>
<path fill="none" stroke="#8b9cb6" stroke-width="1.2" d="M88.2,-21.66C113.96,-18.8 147.37,-15.55 177.14,-14.12 211.54,-12.46 220.23,-12.55 254.64,-14.12 282.87,-15.41 314.21,-18.16 340.01,-20.78"/>
<polygon fill="#8b9cb6" stroke="#8b9cb6" stroke-width="1.2" points="346.72,-21.47 339.44,-23.89 344.69,-21.36 339.75,-20.86 339.76,-20.76 339.77,-20.66 344.71,-21.17 340.08,-17.62 346.72,-21.47"/>
<text xml:space="preserve" text-anchor="middle" x="215.89" y="-15.32" font-family="Helvetica Neue,Helvetica,Arial,sans-serif" font-size="9.00" fill="#8b9cb6">(1, 1, 3)</text>
</g>
<!-- ESNLayer_1&#45;&gt;Concatenate_1 -->
<g id="edge3" class="edge">
<title>ESNLayer_1&#45;&gt;Concatenate_1</title>
<path fill="none" stroke="#8b9cb6" stroke-width="1.2" d="M255.29,-55.84C280.1,-50.66 312.72,-43.84 340.09,-38.12"/>
<polygon fill="#8b9cb6" stroke="#8b9cb6" stroke-width="1.2" points="346.59,-36.76 340.39,-41.27 344.62,-37.27 339.76,-38.29 339.74,-38.19 339.72,-38.09 344.58,-37.08 339.1,-35.11 346.59,-36.76"/>
<text xml:space="preserve" text-anchor="middle" x="301.64" y="-50.97" font-family="Helvetica Neue,Helvetica,Arial,sans-serif" font-size="9.00" fill="#8b9cb6">(1, 1, 64)</text>
</g>
<!-- CGReadoutLayer_1 -->
<g id="node4" class="node">
<title>CGReadoutLayer_1</title>
<path fill="#f7c5c5" stroke="#841717" stroke-width="1.5" d="M644.89,-45.87C644.89,-45.87 547.14,-45.87 547.14,-45.87 541.14,-45.87 535.14,-39.87 535.14,-33.87 535.14,-33.87 535.14,-19.87 535.14,-19.87 535.14,-13.87 541.14,-7.87 547.14,-7.87 547.14,-7.87 644.89,-7.87 644.89,-7.87 650.89,-7.87 656.89,-13.87 656.89,-19.87 656.89,-19.87 656.89,-33.87 656.89,-33.87 656.89,-39.87 650.89,-45.87 644.89,-45.87"/>
<text xml:space="preserve" text-anchor="middle" x="596.01" y="-28.57" font-family="Helvetica Neue,Helvetica,Arial,sans-serif" font-size="14.00" fill="#1a2332">CGReadoutLayer</text>
<text xml:space="preserve" text-anchor="middle" x="596.01" y="-13.57" font-family="Helvetica Neue,Helvetica,Arial,sans-serif" font-size="14.00" fill="#1a2332">(1, 1, 3)</text>
</g>
<!-- Concatenate_1&#45;&gt;CGReadoutLayer_1 -->
<g id="edge4" class="edge">
<title>Concatenate_1&#45;&gt;CGReadoutLayer_1</title>
<path fill="none" stroke="#8b9cb6" stroke-width="1.2" d="M441.57,-26.87C466.65,-26.87 498.26,-26.87 526.26,-26.87"/>
<polygon fill="#8b9cb6" stroke="#8b9cb6" stroke-width="1.2" points="532.98,-26.87 525.98,-30.02 530.94,-26.97 525.98,-26.97 525.98,-26.87 525.98,-26.77 530.94,-26.77 525.98,-23.72 532.98,-26.87"/>
<text xml:space="preserve" text-anchor="middle" x="488.14" y="-28.07" font-family="Helvetica Neue,Helvetica,Arial,sans-serif" font-size="9.00" fill="#8b9cb6">(1, 1, 67)</text>
</g>
</g>
</svg>
