<?xml version="1.0" encoding="UTF-8" standalone="no"?>
<!DOCTYPE svg PUBLIC "-//W3C//DTD SVG 1.1//EN"
 "http://www.w3.org/Graphics/SVG/1.1/DTD/svg11.dtd">
<!-- Generated by graphviz version 14.1.5 (0)
 -->
<!-- Title: ESNModel Pages: 1 -->
<svg width="583pt" height="136pt"
 viewBox="0.00 0.00 583.00 136.00" xmlns="http://www.w3.org/2000/svg" xmlns:xlink="http://www.w3.org/1999/xlink">
<g id="graph0" class="graph" transform="scale(1 1) rotate(0) translate(28.8 106.8)">
<title>ESNModel</title>
<polygon fill="white" stroke="none" points="-28.8,28.8 -28.8,-106.8 554.34,-106.8 554.34,28.8 -28.8,28.8"/>
<!-- Input_1 -->
<g id="node1" class="node">
<title>Input_1</title>
<ellipse fill="#f7c5f1" stroke="#841777" stroke-width="1.5" cx="29.9" cy="-18" rx="29.9" ry="18"/>
<text xml:space="preserve" text-anchor="middle" x="29.9" y="-12.2" font-family="Helvetica Neue,Helvetica,Arial,sans-serif" font-size="14.00" fill="#1a2332">Input</text>
</g>
<!-- ESNLayer_1 -->
<g id="node2" class="node">
<title>ESNLayer_1</title>
<path fill="#e2f7c5" stroke="#578417" stroke-width="1.5" d="M183.29,-78C183.29,-78 129.79,-78 129.79,-78 123.79,-78 117.79,-72 117.79,-66 117.79,-66 117.79,-54 117.79,-54 117.79,-48 123.79,-42 129.79,-42 129.79,-42 183.29,-42 183.29,-42 189.29,-42 195.29,-48 195.29,-54 195.29,-54 195.29,-66 195.29,-66 195.29,-72 189.29,-78 183.29,-78"/>
<text xml:space="preserve" text-anchor="middle" x="156.54" y="-54.2" font-family="Helvetica Neue,Helvetica,Arial,sans-serif" font-size="14.00" fill="#1a2332">ESNLayer</text>
</g>
<!-- Input_1&#45;&gt;ESNLayer_1 -->
<g id="edge1" class="edge">
<title>Input_1&#45;&gt;ESNLayer_1</title>
<path fill="none" stroke="#8b9cb6" stroke-width="1.2" d="M56.72,-26.7C72.07,-31.87 91.98,-38.58 109.91,-44.62"/>
<polygon fill="#8b9cb6" stroke="#8b9cb6" stroke-width="1.2" points="116.06,-46.7 108.42,-47.45 114.1,-46.14 109.39,-44.56 109.43,-44.46 109.46,-44.37 114.16,-45.95 110.43,-41.48 116.06,-46.7"/>
</g>
<!-- Concatenate_1 -->
<g id="node3" class="node">
<title>Concatenate_1</title>
<path fill="#c5d4f7" stroke="#173784" stroke-width="1.5" d="M333.79,-36C333.79,-36 265.29,-36 265.29,-36 259.29,-36 253.29,-30 253.29,-24 253.29,-24 253.29,-12 253.29,-12 253.29,-6 259.29,0 265.29,0 265.29,0 333.79,0 333.79,0 339.79,0 345.79,-6 345.79,-12 345.79,-12 345.79,-24 345.79,-24 345.79,-30 339.79,-36 333.79,-36"/>
<text xml:space="preserve" text-anchor="middle" x="299.54" y="-12.2" font-family="Helvetica Neue,Helvetica,Arial,sans-serif" font-size="14.00" fill="#1a2332">Concatenate</text>
</g>
<!-- Input_1&#45;&gt;Concatenate_1 -->
<g id="edge2" class="edge">
<title>Input_1&#45;&gt;Concatenate_1</title>
<path fill="none" stroke="#8b9cb6" stroke-width="1.2" d="M60.31,-18C104.48,-18 188.69,-18 244.23,-18"/>
<polygon fill="#8b9cb6" stroke="#8b9cb6" stroke-width="1.2" points="251.09,-18 244.09,-21.15 249.05,-18.1 244.09,-18.1 244.09,-18 244.09,-17.9 249.05,-17.9 244.09,-14.85 251.09,-18"/>
</g>
<!-- ESNLayer_1&#45;&gt;Concatenate_1 -->
<g id="edge3" class="edge">
<title>ESNLayer_1&#45;&gt;Concatenate_1</title>
<path fill="none" stroke="#8b9cb6" stroke-width="1.2" d="M195.7,-48.63C210.77,-44.15 228.36,-38.91 244.68,-34.04"/>
<polygon fill="#8b9cb6" stroke="#8b9cb6" stroke-width="1.2" points="251.18,-32.11 245.37,-37.13 249.25,-32.79 244.5,-34.2 244.47,-34.11 244.44,-34.01 249.19,-32.6 243.57,-31.09 251.18,-32.11"/>
</g>
<!-- CGReadoutLayer_1 -->
<g id="node4" class="node">
<title>CGReadoutLayer_1</title>
<path fill="#f7c5c5" stroke="#841717" stroke-width="1.5" d="M513.54,-36C513.54,-36 415.79,-36 415.79,-36 409.79,-36 403.79,-30 403.79,-24 403.79,-24 403.79,-12 403.79,-12 403.79,-6 409.79,0 415.79,0 415.79,0 513.54,0 513.54,0 519.54,0 525.54,-6 525.54,-12 525.54,-12 525.54,-24 525.54,-24 525.54,-30 519.54,-36 513.54,-36"/>
<text xml:space="preserve" text-anchor="middle" x="464.67" y="-12.2" font-family="Helvetica Neue,Helvetica,Arial,sans-serif" font-size="14.00" fill="#1a2332">CGReadoutLayer</text>
</g>
<!-- Concatenate_1&#45;&gt;CGReadoutLayer_1 -->
<g id="edge4" class="edge">
<title>Concatenate_1&#45;&gt;CGReadoutLayer_1</title>
<path fill="none" stroke="#8b9cb6" stroke-width="1.2" d="M346.42,-18C361.42,-18 378.44,-18 394.76,-18"/>
<polygon fill="#8b9cb6" stroke="#8b9cb6" stroke-width="1.2" points="401.75,-18 394.75,-21.15 399.72,-18.1 394.75,-18.1 394.75,-18 394.75,-17.9 399.72,-17.9 394.75,-14.85 401.75,-18"/>
</g>
</g>
</svg>
