<?xml version="1.0" encoding="UTF-8" standalone="no"?>
<!DOCTYPE svg PUBLIC "-//W3C//DTD SVG 1.1//EN"
 "http://www.w3.org/Graphics/SVG/1.1/DTD/svg11.dtd">
<!-- Generated by graphviz version 14.1.5 (0)
 -->
<!-- Title: ESNModel Pages: 1 -->
<svg width="312pt" height="111pt"
 viewBox="0.00 0.00 312.00 111.00" xmlns="http://www.w3.org/2000/svg" xmlns:xlink="http://www.w3.org/1999/xlink">
<g id="graph0" class="graph" transform="scale(1 1) rotate(0) translate(28.8 82.54)">
<title>ESNModel</title>
<polygon fill="white" stroke="none" points="-28.8,28.8 -28.8,-82.54 283.44,-82.54 283.44,28.8 -28.8,28.8"/>
<!-- Input_1 -->
<g id="node1" class="node">
<title>Input_1</title>
<ellipse fill="#c5d4f7" stroke="#173784" stroke-width="1.5" cx="44.19" cy="-26.87" rx="44.19" ry="26.87"/>
<text xml:space="preserve" text-anchor="middle" x="44.19" y="-28.57" font-family="Helvetica Neue,Helvetica,Arial,sans-serif" font-size="14.00" fill="#1a2332">Input</text>
<text xml:space="preserve" text-anchor="middle" x="44.19" y="-13.57" font-family="Helvetica Neue,Helvetica,Arial,sans-serif" font-size="14.00" fill="#1a2332">(1, 1, 3)</text>
</g>
<!-- ESNLayer_1 -->
<g id="node2" class="node">
<title>ESNLayer_1</title>
<path fill="#f7c5c5" stroke="#841717" stroke-width="1.5" d="M242.64,-45.87C242.64,-45.87 189.14,-45.87 189.14,-45.87 183.14,-45.87 177.14,-39.87 177.14,-33.87 177.14,-33.87 177.14,-19.87 177.14,-19.87 177.14,-13.87 183.14,-7.87 189.14,-7.87 189.14,-7.87 242.64,-7.87 242.64,-7.87 248.64,-7.87 254.64,-13.87 254.64,-19.87 254.64,-19.87 254.64,-33.87 254.64,-33.87 254.64,-39.87 248.64,-45.87 242.64,-45.87"/>
<text xml:space="preserve" text-anchor="middle" x="215.89" y="-28.57" font-family="Helvetica Neue,Helvetica,Arial,sans-serif" font-size="14.00" fill="#1a2332">ESNLayer</text>
<text xml:space="preserve" text-anchor="middle" x="215.89" y="-13.57" font-family="Helvetica Neue,Helvetica,Arial,sans-serif" font-size="14.00" fill="#1a2332">(1, 1, 64)</text>
</g>
<!-- Input_1&#45;&gt;ESNLayer_1 -->
<g id="edge1" class="edge">
<title>Input_1&#45;&gt;ESNLayer_1</title>
<path fill="none" stroke="#8b9cb6" stroke-width="1.2" d="M88.89,-26.87C113.25,-26.87 143.56,-26.87 168.36,-26.87"/>
<polygon fill="#8b9cb6" stroke="#8b9cb6" stroke-width="1.2" points="175.07,-26.87 168.07,-30.02 173.03,-26.97 168.07,-26.97 168.07,-26.87 168.07,-26.77 173.03,-26.77 168.07,-23.72 175.07,-26.87"/>
<text xml:space="preserve" text-anchor="middle" x="132.76" y="-28.07" font-family="Helvetica Neue,Helvetica,Arial,sans-serif" font-size="9.00" fill="#8b9cb6">(1, 1, 3)</text>
</g>
</g>
</svg>
