<?xml version="1.0" encoding="UTF-8" standalone="no"?>
<!DOCTYPE svg PUBLIC "-//W3C//DTD SVG 1.1//EN"
 "http://www.w3.org/Graphics/SVG/1.1/DTD/svg11.dtd">
<!-- Generated by graphviz version 14.1.5 (0)
 -->
<!-- Title: ESNModel Pages: 1 -->
<svg width="968pt" height="152pt"
 viewBox="0.00 0.00 968.00 152.00" xmlns="http://www.w3.org/2000/svg" xmlns:xlink="http://www.w3.org/1999/xlink">
<g id="graph0" class="graph" transform="scale(1 1) rotate(0) translate(28.8 123.67)">
<title>ESNModel</title>
<polygon fill="white" stroke="none" points="-28.8,28.8 -28.8,-123.67 939.69,-123.67 939.69,28.8 -28.8,28.8"/>
<!-- Input_1 -->
<g id="node1" class="node">
<title>Input_1</title>
<ellipse fill="#f7c5f1" stroke="#841777" stroke-width="1.5" cx="44.19" cy="-26.87" rx="44.19" ry="26.87"/>
<text xml:space="preserve" text-anchor="middle" x="44.19" y="-28.57" font-family="Helvetica Neue,Helvetica,Arial,sans-serif" font-size="14.00" fill="#1a2332">Input</text>
<text xml:space="preserve" text-anchor="middle" x="44.19" y="-13.57" font-family="Helvetica Neue,Helvetica,Arial,sans-serif" font-size="14.00" fill="#1a2332">(1, 1, 3)</text>
</g>
<!-- ESNLayer_1 -->
<g id="node2" class="node">
<title>ESNLayer_1</title>
<path fill="#e2f7c5" stroke="#578417" stroke-width="1.5" d="M242.64,-94.87C242.64,-94.87 189.14,-94.87 189.14,-94.87 183.14,-94.87 177.14,-88.87 177.14,-82.87 177.14,-82.87 177.14,-68.87 177.14,-68.87 177.14,-62.87 183.14,-56.87 189.14,-56.87 189.14,-56.87 242.64,-56.87 242.64,-56.87 248.64,-56.87 254.64,-62.87 254.64,-68.87 254.64,-68.87 254.64,-82.87 254.64,-82.87 254.64,-88.87 248.64,-94.87 242.64,-94.87"/>
<text xml:space="preserve" text-anchor="middle" x="215.89" y="-77.57" font-family="Helvetica Neue,Helvetica,Arial,sans-serif" font-size="14.00" fill="#1a2332">ESNLayer</text>
<text xml:space="preserve" text-anchor="middle" x="215.89" y="-62.57" font-family="Helvetica Neue,Helvetica,Arial,sans-serif" font-size="14.00" fill="#1a2332">(1, 1, 64)</text>
</g>
<!-- Input_1&#45;&gt;ESNLayer_1 -->
<g id="edge1" class="edge">
<title>Input_1&#45;&gt;ESNLayer_1</title>
<path fill="none" stroke="#8b9cb6" stroke-width="1.2" d="M84.98,-38.36C110.02,-45.59 142.42,-54.95 168.61,-62.51"/>
<polygon fill="#8b9cb6" stroke="#8b9cb6" stroke-width="1.2" points="175.11,-64.39 167.52,-65.47 173.13,-63.92 168.36,-62.54 168.39,-62.44 168.42,-62.35 173.18,-63.72 169.26,-59.42 175.11,-64.39"/>
<text xml:space="preserve" text-anchor="middle" x="132.76" y="-56.96" font-family="Helvetica Neue,Helvetica,Arial,sans-serif" font-size="9.00" fill="#8b9cb6">(1, 1, 3)</text>
</g>
<!-- Concatenate_1 -->
<g id="node4" class="node">
<title>Concatenate_1</title>
<path fill="#c5d4f7" stroke="#173784" stroke-width="1.5" d="M683.14,-45.87C683.14,-45.87 614.64,-45.87 614.64,-45.87 608.64,-45.87 602.64,-39.87 602.64,-33.87 602.64,-33.87 602.64,-19.87 602.64,-19.87 602.64,-13.87 608.64,-7.87 614.64,-7.87 614.64,-7.87 683.14,-7.87 683.14,-7.87 689.14,-7.87 695.14,-13.87 695.14,-19.87 695.14,-19.87 695.14,-33.87 695.14,-33.87 695.14,-39.87 689.14,-45.87 683.14,-45.87"/>
<text xml:space="preserve" text-anchor="middle" x="648.89" y="-28.57" font-family="Helvetica Neue,Helvetica,Arial,sans-serif" font-size="14.00" fill="#1a2332">Concatenate</text>
<text xml:space="preserve" text-anchor="middle" x="648.89" y="-13.57" font-family="Helvetica Neue,Helvetica,Arial,sans-serif" font-size="14.00" fill="#1a2332">(1, 1, 67)</text>
</g>
<!-- Input_1&#45;&gt;Concatenate_1 -->
<g id="edge3" class="edge">
<title>Input_1&#45;&gt;Concatenate_1</title>
<path fill="none" stroke="#8b9cb6" stroke-width="1.2" d="M89.02,-26.87C197.08,-26.87 476.03,-26.87 593.97,-26.87"/>
<polygon fill="#8b9cb6" stroke="#8b9cb6" stroke-width="1.2" points="600.71,-26.87 593.71,-30.02 598.67,-26.97 593.71,-26.97 593.71,-26.87 593.71,-26.77 598.67,-26.77 593.71,-23.72 600.71,-26.87"/>
<text xml:space="preserve" text-anchor="middle" x="301.64" y="-28.07" font-family="Helvetica Neue,Helvetica,Arial,sans-serif" font-size="9.00" fill="#8b9cb6">(1, 1, 3)</text>
</g>
<!-- SelectiveExponentiation_1 -->
<g id="node3" class="node">
<title>SelectiveExponentiation_1</title>
<path fill="#c5f7ef" stroke="#178472" stroke-width="1.5" d="M496.64,-94.87C496.64,-94.87 360.64,-94.87 360.64,-94.87 354.64,-94.87 348.64,-88.87 348.64,-82.87 348.64,-82.87 348.64,-68.87 348.64,-68.87 348.64,-62.87 354.64,-56.87 360.64,-56.87 360.64,-56.87 496.64,-56.87 496.64,-56.87 502.64,-56.87 508.64,-62.87 508.64,-68.87 508.64,-68.87 508.64,-82.87 508.64,-82.87 508.64,-88.87 502.64,-94.87 496.64,-94.87"/>
<text xml:space="preserve" text-anchor="middle" x="428.64" y="-77.57" font-family="Helvetica Neue,Helvetica,Arial,sans-serif" font-size="14.00" fill="#1a2332">SelectiveExponentiation</text>
<text xml:space="preserve" text-anchor="middle" x="428.64" y="-62.57" font-family="Helvetica Neue,Helvetica,Arial,sans-serif" font-size="14.00" fill="#1a2332">(1, 1, 64)</text>
</g>
<!-- ESNLayer_1&#45;&gt;SelectiveExponentiation_1 -->
<g id="edge2" class="edge">
<title>ESNLayer_1&#45;&gt;SelectiveExponentiation_1</title>
<path fill="none" stroke="#8b9cb6" stroke-width="1.2" d="M255.05,-75.87C278.8,-75.87 310.36,-75.87 339.99,-75.87"/>
<polygon fill="#8b9cb6" stroke="#8b9cb6" stroke-width="1.2" points="346.83,-75.87 339.83,-79.02 344.79,-75.97 339.83,-75.97 339.83,-75.87 339.83,-75.77 344.79,-75.77 339.83,-72.72 346.83,-75.87"/>
<text xml:space="preserve" text-anchor="middle" x="301.64" y="-77.07" font-family="Helvetica Neue,Helvetica,Arial,sans-serif" font-size="9.00" fill="#8b9cb6">(1, 1, 64)</text>
</g>
<!-- SelectiveExponentiation_1&#45;&gt;Concatenate_1 -->
<g id="edge4" class="edge">
<title>SelectiveExponentiation_1&#45;&gt;Concatenate_1</title>
<path fill="none" stroke="#8b9cb6" stroke-width="1.2" d="M509.36,-57.97C537.49,-51.66 568.43,-44.71 593.93,-38.99"/>
<polygon fill="#8b9cb6" stroke="#8b9cb6" stroke-width="1.2" points="600.58,-37.49 594.44,-42.1 598.61,-38.04 593.77,-39.12 593.75,-39.03 593.72,-38.93 598.57,-37.84 593.06,-35.95 600.58,-37.49"/>
<text xml:space="preserve" text-anchor="middle" x="555.64" y="-52.57" font-family="Helvetica Neue,Helvetica,Arial,sans-serif" font-size="9.00" fill="#8b9cb6">(1, 1, 64)</text>
</g>
<!-- CGReadoutLayer_1 -->
<g id="node5" class="node">
<title>CGReadoutLayer_1</title>
<path fill="#f7c5c5" stroke="#841717" stroke-width="1.5" d="M898.89,-45.87C898.89,-45.87 801.14,-45.87 801.14,-45.87 795.14,-45.87 789.14,-39.87 789.14,-33.87 789.14,-33.87 789.14,-19.87 789.14,-19.87 789.14,-13.87 795.14,-7.87 801.14,-7.87 801.14,-7.87 898.89,-7.87 898.89,-7.87 904.89,-7.87 910.89,-13.87 910.89,-19.87 910.89,-19.87 910.89,-33.87 910.89,-33.87 910.89,-39.87 904.89,-45.87 898.89,-45.87"/>
<text xml:space="preserve" text-anchor="middle" x="850.01" y="-28.57" font-family="Helvetica Neue,Helvetica,Arial,sans-serif" font-size="14.00" fill="#1a2332">CGReadoutLayer</text>
<text xml:space="preserve" text-anchor="middle" x="850.01" y="-13.57" font-family="Helvetica Neue,Helvetica,Arial,sans-serif" font-size="14.00" fill="#1a2332">(1, 1, 3)</text>
</g>
<!-- Concatenate_1&#45;&gt;CGReadoutLayer_1 -->
<g id="edge5" class="edge">
<title>Concatenate_1&#45;&gt;CGReadoutLayer_1</title>
<path fill="none" stroke="#8b9cb6" stroke-width="1.2" d="M695.57,-26.87C720.65,-26.87 752.26,-26.87 780.26,-26.87"/>
<polygon fill="#8b9cb6" stroke="#8b9cb6" stroke-width="1.2" points="786.98,-26.87 779.98,-30.02 784.94,-26.97 779.98,-26.97 779.98,-26.87 779.98,-26.77 784.94,-26.77 779.98,-23.72 786.98,-26.87"/>
<text xml:space="preserve" text-anchor="middle" x="742.14" y="-28.07" font-family="Helvetica Neue,Helvetica,Arial,sans-serif" font-size="9.00" fill="#8b9cb6">(1, 1, 67)</text>
</g>
</g>
</svg>
