<?xml version="1.0" encoding="UTF-8" standalone="no"?>
<!DOCTYPE svg PUBLIC "-//W3C//DTD SVG 1.1//EN"
 "http://www.w3.org/Graphics/SVG/1.1/DTD/svg11.dtd">
<!-- Generated by graphviz version 14.1.5 (0)
 -->
<!-- Title: ESNModel Pages: 1 -->
<svg width="801pt" height="136pt"
 viewBox="0.00 0.00 801.00 136.00" xmlns="http://www.w3.org/2000/svg" xmlns:xlink="http://www.w3.org/1999/xlink">
<g id="graph0" class="graph" transform="scale(1 1) rotate(0) translate(28.8 106.8)">
<title>ESNModel</title>
<polygon fill="white" stroke="none" points="-28.8,28.8 -28.8,-106.8 772.34,-106.8 772.34,28.8 -28.8,28.8"/>
<!-- Input_1 -->
<g id="node1" class="node">
<title>Input_1</title>
<ellipse fill="#f7c5f1" stroke="#841777" stroke-width="1.5" cx="29.9" cy="-18" rx="29.9" ry="18"/>
<text xml:space="preserve" text-anchor="middle" x="29.9" y="-12.2" font-family="Helvetica Neue,Helvetica,Arial,sans-serif" font-size="14.00" fill="#1a2332">Input</text>
</g>
<!-- ESNLayer_1 -->
<g id="node2" class="node">
<title>ESNLayer_1</title>
<path fill="#e2f7c5" stroke="#578417" stroke-width="1.5" d="M183.29,-78C183.29,-78 129.79,-78 129.79,-78 123.79,-78 117.79,-72 117.79,-66 117.79,-66 117.79,-54 117.79,-54 117.79,-48 123.79,-42 129.79,-42 129.79,-42 183.29,-42 183.29,-42 189.29,-42 195.29,-48 195.29,-54 195.29,-54 195.29,-66 195.29,-66 195.29,-72 189.29,-78 183.29,-78"/>
<text xml:space="preserve" text-anchor="middle" x="156.54" y="-54.2" font-family="Helvetica Neue,Helvetica,Arial,sans-serif" font-size="14.00" fill="#1a2332">ESNLayer</text>
</g>
<!-- Input_1&#45;&gt;ESNLayer_1 -->
<g id="edge1" class="edge">
<title>Input_1&#45;&gt;ESNLayer_1</title>
<path fill="none" stroke="#8b9cb6" stroke-width="1.2" d="M56.72,-26.7C72.07,-31.87 91.98,-38.58 109.91,-44.62"/>
<polygon fill="#8b9cb6" stroke="#8b9cb6" stroke-width="1.2" points="116.06,-46.7 108.42,-47.45 114.1,-46.14 109.39,-44.56 109.43,-44.46 109.46,-44.37 114.16,-45.95 110.43,-41.48 116.06,-46.7"/>
</g>
<!-- Concatenate_1 -->
<g id="node4" class="node">
<title>Concatenate_1</title>
<path fill="#c5d4f7" stroke="#173784" stroke-width="1.5" d="M551.79,-36C551.79,-36 483.29,-36 483.29,-36 477.29,-36 471.29,-30 471.29,-24 471.29,-24 471.29,-12 471.29,-12 471.29,-6 477.29,0 483.29,0 483.29,0 551.79,0 551.79,0 557.79,0 563.79,-6 563.79,-12 563.79,-12 563.79,-24 563.79,-24 563.79,-30 557.79,-36 551.79,-36"/>
<text xml:space="preserve" text-anchor="middle" x="517.54" y="-12.2" font-family="Helvetica Neue,Helvetica,Arial,sans-serif" font-size="14.00" fill="#1a2332">Concatenate</text>
</g>
<!-- Input_1&#45;&gt;Concatenate_1 -->
<g id="edge3" class="edge">
<title>Input_1&#45;&gt;Concatenate_1</title>
<path fill="none" stroke="#8b9cb6" stroke-width="1.2" d="M60.18,-18C139.57,-18 359.8,-18 462.51,-18"/>
<polygon fill="#8b9cb6" stroke="#8b9cb6" stroke-width="1.2" points="469.42,-18 462.42,-21.15 467.39,-18.1 462.42,-18.1 462.42,-18 462.42,-17.9 467.39,-17.9 462.42,-14.85 469.42,-18"/>
</g>
<!-- SelectiveExponentiation_1 -->
<g id="node3" class="node">
<title>SelectiveExponentiation_1</title>
<path fill="#c5f7ef" stroke="#178472" stroke-width="1.5" d="M401.29,-78C401.29,-78 265.29,-78 265.29,-78 259.29,-78 253.29,-72 253.29,-66 253.29,-66 253.29,-54 253.29,-54 253.29,-48 259.29,-42 265.29,-42 265.29,-42 401.29,-42 401.29,-42 407.29,-42 413.29,-48 413.29,-54 413.29,-54 413.29,-66 413.29,-66 413.29,-72 407.29,-78 401.29,-78"/>
<text xml:space="preserve" text-anchor="middle" x="333.29" y="-54.2" font-family="Helvetica Neue,Helvetica,Arial,sans-serif" font-size="14.00" fill="#1a2332">SelectiveExponentiation</text>
</g>
<!-- ESNLayer_1&#45;&gt;SelectiveExponentiation_1 -->
<g id="edge2" class="edge">
<title>ESNLayer_1&#45;&gt;SelectiveExponentiation_1</title>
<path fill="none" stroke="#8b9cb6" stroke-width="1.2" d="M195.89,-60C210.31,-60 227.37,-60 244.44,-60"/>
<polygon fill="#8b9cb6" stroke="#8b9cb6" stroke-width="1.2" points="251.35,-60 244.35,-63.15 249.32,-60.1 244.35,-60.1 244.35,-60 244.35,-59.9 249.32,-59.9 244.35,-56.85 251.35,-60"/>
</g>
<!-- SelectiveExponentiation_1&#45;&gt;Concatenate_1 -->
<g id="edge4" class="edge">
<title>SelectiveExponentiation_1&#45;&gt;Concatenate_1</title>
<path fill="none" stroke="#8b9cb6" stroke-width="1.2" d="M413.97,-41.64C430.44,-37.84 447.43,-33.93 462.72,-30.4"/>
<polygon fill="#8b9cb6" stroke="#8b9cb6" stroke-width="1.2" points="469.12,-28.93 463.01,-33.57 467.16,-29.48 462.32,-30.6 462.3,-30.5 462.28,-30.4 467.11,-29.29 461.59,-27.43 469.12,-28.93"/>
</g>
<!-- CGReadoutLayer_1 -->
<g id="node5" class="node">
<title>CGReadoutLayer_1</title>
<path fill="#f7c5c5" stroke="#841717" stroke-width="1.5" d="M731.54,-36C731.54,-36 633.79,-36 633.79,-36 627.79,-36 621.79,-30 621.79,-24 621.79,-24 621.79,-12 621.79,-12 621.79,-6 627.79,0 633.79,0 633.79,0 731.54,0 731.54,0 737.54,0 743.54,-6 743.54,-12 743.54,-12 743.54,-24 743.54,-24 743.54,-30 737.54,-36 731.54,-36"/>
<text xml:space="preserve" text-anchor="middle" x="682.67" y="-12.2" font-family="Helvetica Neue,Helvetica,Arial,sans-serif" font-size="14.00" fill="#1a2332">CGReadoutLayer</text>
</g>
<!-- Concatenate_1&#45;&gt;CGReadoutLayer_1 -->
<g id="edge5" class="edge">
<title>Concatenate_1&#45;&gt;CGReadoutLayer_1</title>
<path fill="none" stroke="#8b9cb6" stroke-width="1.2" d="M564.42,-18C579.42,-18 596.44,-18 612.76,-18"/>
<polygon fill="#8b9cb6" stroke="#8b9cb6" stroke-width="1.2" points="619.75,-18 612.75,-21.15 617.72,-18.1 612.75,-18.1 612.75,-18 612.75,-17.9 617.72,-17.9 612.75,-14.85 619.75,-18"/>
</g>
</g>
</svg>
