<?xml version="1.0" encoding="UTF-8" standalone="no"?>
<!DOCTYPE svg PUBLIC "-//W3C//DTD SVG 1.1//EN"
 "http://www.w3.org/Graphics/SVG/1.1/DTD/svg11.dtd">
<!-- Generated by graphviz version 14.1.5 (0)
 -->
<!-- Title: ESNModel Pages: 1 -->
<svg width="695pt" height="136pt"
 viewBox="0.00 0.00 695.00 136.00" xmlns="http://www.w3.org/2000/svg" xmlns:xlink="http://www.w3.org/1999/xlink">
<g id="graph0" class="graph" transform="scale(1 1) rotate(0) translate(28.8 106.8)">
<title>ESNModel</title>
<polygon fill="white" stroke="none" points="-28.8,28.8 -28.8,-106.8 666.59,-106.8 666.59,28.8 -28.8,28.8"/>
<!-- Input_1 -->
<g id="node1" class="node">
<title>Input_1</title>
<ellipse fill="#f7c5f1" stroke="#841777" stroke-width="1.5" cx="29.9" cy="-18" rx="29.9" ry="18"/>
<text xml:space="preserve" text-anchor="middle" x="29.9" y="-12.2" font-family="Helvetica Neue,Helvetica,Arial,sans-serif" font-size="14.00" fill="#1a2332">Input</text>
</g>
<!-- ESNLayer_1 -->
<g id="node2" class="node">
<title>ESNLayer_1</title>
<path fill="#e2f7c5" stroke="#578417" stroke-width="1.5" d="M183.29,-78C183.29,-78 129.79,-78 129.79,-78 123.79,-78 117.79,-72 117.79,-66 117.79,-66 117.79,-54 117.79,-54 117.79,-48 123.79,-42 129.79,-42 129.79,-42 183.29,-42 183.29,-42 189.29,-42 195.29,-48 195.29,-54 195.29,-54 195.29,-66 195.29,-66 195.29,-72 189.29,-78 183.29,-78"/>
<text xml:space="preserve" text-anchor="middle" x="156.54" y="-54.2" font-family="Helvetica Neue,Helvetica,Arial,sans-serif" font-size="14.00" fill="#1a2332">ESNLayer</text>
</g>
<!-- Input_1&#45;&gt;ESNLayer_1 -->
<g id="edge1" class="edge">
<title>Input_1&#45;&gt;ESNLayer_1</title>
<path fill="none" stroke="#8b9cb6" stroke-width="1.2" d="M56.72,-26.7C72.07,-31.87 91.98,-38.58 109.91,-44.62"/>
<polygon fill="#8b9cb6" stroke="#8b9cb6" stroke-width="1.2" points="116.06,-46.7 108.42,-47.45 114.1,-46.14 109.39,-44.56 109.43,-44.46 109.46,-44.37 114.16,-45.95 110.43,-41.48 116.06,-46.7"/>
</g>
<!-- Concatenate_1 -->
<g id="node4" class="node">
<title>Concatenate_1</title>
<path fill="#c5d4f7" stroke="#173784" stroke-width="1.5" d="M446.04,-36C446.04,-36 377.54,-36 377.54,-36 371.54,-36 365.54,-30 365.54,-24 365.54,-24 365.54,-12 365.54,-12 365.54,-6 371.54,0 377.54,0 377.54,0 446.04,0 446.04,0 452.04,0 458.04,-6 458.04,-12 458.04,-12 458.04,-24 458.04,-24 458.04,-30 452.04,-36 446.04,-36"/>
<text xml:space="preserve" text-anchor="middle" x="411.79" y="-12.2" font-family="Helvetica Neue,Helvetica,Arial,sans-serif" font-size="14.00" fill="#1a2332">Concatenate</text>
</g>
<!-- Input_1&#45;&gt;Concatenate_1 -->
<g id="edge3" class="edge">
<title>Input_1&#45;&gt;Concatenate_1</title>
<path fill="none" stroke="#8b9cb6" stroke-width="1.2" d="M60.39,-18C124.1,-18 275.38,-18 356.76,-18"/>
<polygon fill="#8b9cb6" stroke="#8b9cb6" stroke-width="1.2" points="363.43,-18 356.43,-21.15 361.39,-18.1 356.43,-18.1 356.43,-18 356.43,-17.9 361.39,-17.9 356.43,-14.85 363.43,-18"/>
</g>
<!-- Power_1 -->
<g id="node3" class="node">
<title>Power_1</title>
<path fill="#c5f7ef" stroke="#178472" stroke-width="1.5" d="M295.54,-78C295.54,-78 265.29,-78 265.29,-78 259.29,-78 253.29,-72 253.29,-66 253.29,-66 253.29,-54 253.29,-54 253.29,-48 259.29,-42 265.29,-42 265.29,-42 295.54,-42 295.54,-42 301.54,-42 307.54,-48 307.54,-54 307.54,-54 307.54,-66 307.54,-66 307.54,-72 301.54,-78 295.54,-78"/>
<text xml:space="preserve" text-anchor="middle" x="280.42" y="-54.2" font-family="Helvetica Neue,Helvetica,Arial,sans-serif" font-size="14.00" fill="#1a2332">Power</text>
</g>
<!-- ESNLayer_1&#45;&gt;Power_1 -->
<g id="edge2" class="edge">
<title>ESNLayer_1&#45;&gt;Power_1</title>
<path fill="none" stroke="#8b9cb6" stroke-width="1.2" d="M195.77,-60C211.44,-60 229.44,-60 244.73,-60"/>
<polygon fill="#8b9cb6" stroke="#8b9cb6" stroke-width="1.2" points="251.44,-60 244.44,-63.15 249.41,-60.1 244.44,-60.1 244.44,-60 244.44,-59.9 249.41,-59.9 244.44,-56.85 251.44,-60"/>
</g>
<!-- Power_1&#45;&gt;Concatenate_1 -->
<g id="edge4" class="edge">
<title>Power_1&#45;&gt;Concatenate_1</title>
<path fill="none" stroke="#8b9cb6" stroke-width="1.2" d="M308.23,-51.3C322.41,-46.69 340.35,-40.87 357.24,-35.39"/>
<polygon fill="#8b9cb6" stroke="#8b9cb6" stroke-width="1.2" points="363.52,-33.35 357.83,-38.5 361.61,-34.07 356.89,-35.6 356.86,-35.51 356.83,-35.41 361.55,-33.88 355.89,-32.51 363.52,-33.35"/>
</g>
<!-- CGReadoutLayer_1 -->
<g id="node5" class="node">
<title>CGReadoutLayer_1</title>
<path fill="#f7c5c5" stroke="#841717" stroke-width="1.5" d="M625.79,-36C625.79,-36 528.04,-36 528.04,-36 522.04,-36 516.04,-30 516.04,-24 516.04,-24 516.04,-12 516.04,-12 516.04,-6 522.04,0 528.04,0 528.04,0 625.79,0 625.79,0 631.79,0 637.79,-6 637.79,-12 637.79,-12 637.79,-24 637.79,-24 637.79,-30 631.79,-36 625.79,-36"/>
<text xml:space="preserve" text-anchor="middle" x="576.92" y="-12.2" font-family="Helvetica Neue,Helvetica,Arial,sans-serif" font-size="14.00" fill="#1a2332">CGReadoutLayer</text>
</g>
<!-- Concatenate_1&#45;&gt;CGReadoutLayer_1 -->
<g id="edge5" class="edge">
<title>Concatenate_1&#45;&gt;CGReadoutLayer_1</title>
<path fill="none" stroke="#8b9cb6" stroke-width="1.2" d="M458.67,-18C473.67,-18 490.69,-18 507.01,-18"/>
<polygon fill="#8b9cb6" stroke="#8b9cb6" stroke-width="1.2" points="514,-18 507,-21.15 511.97,-18.1 507,-18.1 507,-18 507,-17.9 511.97,-17.9 507,-14.85 514,-18"/>
</g>
</g>
</svg>
