<?xml version="1.0" encoding="UTF-8" standalone="no"?>
<!DOCTYPE svg PUBLIC "-//W3C//DTD SVG 1.1//EN"
 "http://www.w3.org/Graphics/SVG/1.1/DTD/svg11.dtd">
<!-- Generated by graphviz version 14.1.5 (0)
 -->
<!-- Title: ESNModel Pages: 1 -->
<svg width="878pt" height="152pt"
 viewBox="0.00 0.00 878.00 152.00" xmlns="http://www.w3.org/2000/svg" xmlns:xlink="http://www.w3.org/1999/xlink">
<g id="graph0" class="graph" transform="scale(1 1) rotate(0) translate(28.8 123.67)">
<title>ESNModel</title>
<polygon fill="white" stroke="none" points="-28.8,28.8 -28.8,-123.67 849.69,-123.67 849.69,28.8 -28.8,28.8"/>
<!-- Input_1 -->
<g id="node1" class="node">
<title>Input_1</title>
<ellipse fill="#f7c5f1" stroke="#841777" stroke-width="1.5" cx="44.19" cy="-26.87" rx="44.19" ry="26.87"/>
<text xml:space="preserve" text-anchor="middle" x="44.19" y="-28.57" font-family="Helvetica Neue,Helvetica,Arial,sans-serif" font-size="14.00" fill="#1a2332">Input</text>
<text xml:space="preserve" text-anchor="middle" x="44.19" y="-13.57" font-family="Helvetica Neue,Helvetica,Arial,sans-serif" font-size="14.00" fill="#1a2332">(1, 1, 3)</text>
</g>
<!-- ESNLayer_1 -->
<g id="node2" class="node">
<title>ESNLayer_1</title>
<path fill="#e2f7c5" stroke="#578417" stroke-width="1.5" d="M242.64,-94.87C242.64,-94.87 189.14,-94.87 189.14,-94.87 183.14,-94.87 177.14,-88.87 177.14,-82.87 177.14,-82.87 177.14,-68.87 177.14,-68.87 177.14,-62.87 183.14,-56.87 189.14,-56.87 189.14,-56.87 242.64,-56.87 242.64,-56.87 248.64,-56.87 254.64,-62.87 254.64,-68.87 254.64,-68.87 254.64,-82.87 254.64,-82.87 254.64,-88.87 248.64,-94.87 242.64,-94.87"/>
<text xml:space="preserve" text-anchor="middle" x="215.89" y="-77.57" font-family="Helvetica Neue,Helvetica,Arial,sans-serif" font-size="14.00" fill="#1a2332">ESNLayer</text>
<text xml:space="preserve" text-anchor="middle" x="215.89" y="-62.57" font-family="Helvetica Neue,Helvetica,Arial,sans-serif" font-size="14.00" fill="#1a2332">(1, 1, 64)</text>
</g>
<!-- Input_1&#45;&gt;ESNLayer_1 -->
<g id="edge1" class="edge">
<title>Input_1&#45;&gt;ESNLayer_1</title>
<path fill="none" stroke="#8b9cb6" stroke-width="1.2" d="M84.98,-38.36C110.02,-45.59 142.42,-54.95 168.61,-62.51"/>
<polygon fill="#8b9cb6" stroke="#8b9cb6" stroke-width="1.2" points="175.11,-64.39 167.52,-65.47 173.13,-63.92 168.36,-62.54 168.39,-62.44 168.42,-62.35 173.18,-63.72 169.26,-59.42 175.11,-64.39"/>
<text xml:space="preserve" text-anchor="middle" x="132.76" y="-56.96" font-family="Helvetica Neue,Helvetica,Arial,sans-serif" font-size="9.00" fill="#8b9cb6">(1, 1, 3)</text>
</g>
<!-- Concatenate_1 -->
<g id="node4" class="node">
<title>Concatenate_1</title>
<path fill="#c5d4f7" stroke="#173784" stroke-width="1.5" d="M593.14,-45.87C593.14,-45.87 524.64,-45.87 524.64,-45.87 518.64,-45.87 512.64,-39.87 512.64,-33.87 512.64,-33.87 512.64,-19.87 512.64,-19.87 512.64,-13.87 518.64,-7.87 524.64,-7.87 524.64,-7.87 593.14,-7.87 593.14,-7.87 599.14,-7.87 605.14,-13.87 605.14,-19.87 605.14,-19.87 605.14,-33.87 605.14,-33.87 605.14,-39.87 599.14,-45.87 593.14,-45.87"/>
<text xml:space="preserve" text-anchor="middle" x="558.89" y="-28.57" font-family="Helvetica Neue,Helvetica,Arial,sans-serif" font-size="14.00" fill="#1a2332">Concatenate</text>
<text xml:space="preserve" text-anchor="middle" x="558.89" y="-13.57" font-family="Helvetica Neue,Helvetica,Arial,sans-serif" font-size="14.00" fill="#1a2332">(1, 1, 67)</text>
</g>
<!-- Input_1&#45;&gt;Concatenate_1 -->
<g id="edge3" class="edge">
<title>Input_1&#45;&gt;Concatenate_1</title>
<path fill="none" stroke="#8b9cb6" stroke-width="1.2" d="M88.91,-26.87C182.41,-26.87 401.63,-26.87 503.76,-26.87"/>
<polygon fill="#8b9cb6" stroke="#8b9cb6" stroke-width="1.2" points="510.63,-26.87 503.63,-30.02 508.59,-26.97 503.63,-26.97 503.63,-26.87 503.63,-26.77 508.59,-26.77 503.63,-23.72 510.63,-26.87"/>
<text xml:space="preserve" text-anchor="middle" x="301.64" y="-28.07" font-family="Helvetica Neue,Helvetica,Arial,sans-serif" font-size="9.00" fill="#8b9cb6">(1, 1, 3)</text>
</g>
<!-- Power_1 -->
<g id="node3" class="node">
<title>Power_1</title>
<path fill="#c5f7ef" stroke="#178472" stroke-width="1.5" d="M406.64,-94.87C406.64,-94.87 360.64,-94.87 360.64,-94.87 354.64,-94.87 348.64,-88.87 348.64,-82.87 348.64,-82.87 348.64,-68.87 348.64,-68.87 348.64,-62.87 354.64,-56.87 360.64,-56.87 360.64,-56.87 406.64,-56.87 406.64,-56.87 412.64,-56.87 418.64,-62.87 418.64,-68.87 418.64,-68.87 418.64,-82.87 418.64,-82.87 418.64,-88.87 412.64,-94.87 406.64,-94.87"/>
<text xml:space="preserve" text-anchor="middle" x="383.64" y="-77.57" font-family="Helvetica Neue,Helvetica,Arial,sans-serif" font-size="14.00" fill="#1a2332">Power</text>
<text xml:space="preserve" text-anchor="middle" x="383.64" y="-62.57" font-family="Helvetica Neue,Helvetica,Arial,sans-serif" font-size="14.00" fill="#1a2332">(1, 1, 64)</text>
</g>
<!-- ESNLayer_1&#45;&gt;Power_1 -->
<g id="edge2" class="edge">
<title>ESNLayer_1&#45;&gt;Power_1</title>
<path fill="none" stroke="#8b9cb6" stroke-width="1.2" d="M255.33,-75.87C280.62,-75.87 313.73,-75.87 339.85,-75.87"/>
<polygon fill="#8b9cb6" stroke="#8b9cb6" stroke-width="1.2" points="346.61,-75.87 339.61,-79.02 344.57,-75.97 339.61,-75.97 339.61,-75.87 339.61,-75.77 344.57,-75.77 339.61,-72.72 346.61,-75.87"/>
<text xml:space="preserve" text-anchor="middle" x="301.64" y="-77.07" font-family="Helvetica Neue,Helvetica,Arial,sans-serif" font-size="9.00" fill="#8b9cb6">(1, 1, 64)</text>
</g>
<!-- Power_1&#45;&gt;Concatenate_1 -->
<g id="edge4" class="edge">
<title>Power_1&#45;&gt;Concatenate_1</title>
<path fill="none" stroke="#8b9cb6" stroke-width="1.2" d="M419.28,-66.07C443.55,-59.21 476.45,-49.9 504.11,-42.08"/>
<polygon fill="#8b9cb6" stroke="#8b9cb6" stroke-width="1.2" points="510.73,-40.21 504.85,-45.14 508.79,-40.86 504.02,-42.21 503.99,-42.11 503.96,-42.02 508.74,-40.67 503.13,-39.08 510.73,-40.21"/>
<text xml:space="preserve" text-anchor="middle" x="465.64" y="-58.4" font-family="Helvetica Neue,Helvetica,Arial,sans-serif" font-size="9.00" fill="#8b9cb6">(1, 1, 64)</text>
</g>
<!-- CGReadoutLayer_1 -->
<g id="node5" class="node">
<title>CGReadoutLayer_1</title>
<path fill="#f7c5c5" stroke="#841717" stroke-width="1.5" d="M808.89,-45.87C808.89,-45.87 711.14,-45.87 711.14,-45.87 705.14,-45.87 699.14,-39.87 699.14,-33.87 699.14,-33.87 699.14,-19.87 699.14,-19.87 699.14,-13.87 705.14,-7.87 711.14,-7.87 711.14,-7.87 808.89,-7.87 808.89,-7.87 814.89,-7.87 820.89,-13.87 820.89,-19.87 820.89,-19.87 820.89,-33.87 820.89,-33.87 820.89,-39.87 814.89,-45.87 808.89,-45.87"/>
<text xml:space="preserve" text-anchor="middle" x="760.01" y="-28.57" font-family="Helvetica Neue,Helvetica,Arial,sans-serif" font-size="14.00" fill="#1a2332">CGReadoutLayer</text>
<text xml:space="preserve" text-anchor="middle" x="760.01" y="-13.57" font-family="Helvetica Neue,Helvetica,Arial,sans-serif" font-size="14.00" fill="#1a2332">(1, 1, 3)</text>
</g>
<!-- Concatenate_1&#45;&gt;CGReadoutLayer_1 -->
<g id="edge5" class="edge">
<title>Concatenate_1&#45;&gt;CGReadoutLayer_1</title>
<path fill="none" stroke="#8b9cb6" stroke-width="1.2" d="M605.57,-26.87C630.65,-26.87 662.26,-26.87 690.26,-26.87"/>
<polygon fill="#8b9cb6" stroke="#8b9cb6" stroke-width="1.2" points="696.98,-26.87 689.98,-30.02 694.94,-26.97 689.98,-26.97 689.98,-26.87 689.98,-26.77 694.94,-26.77 689.98,-23.72 696.98,-26.87"/>
<text xml:space="preserve" text-anchor="middle" x="652.14" y="-28.07" font-family="Helvetica Neue,Helvetica,Arial,sans-serif" font-size="9.00" fill="#8b9cb6">(1, 1, 67)</text>
</g>
</g>
</svg>
