<?xml version="1.0" encoding="UTF-8" standalone="no"?>
<!DOCTYPE svg PUBLIC "-//W3C//DTD SVG 1.1//EN"
 "http://www.w3.org/Graphics/SVG/1.1/DTD/svg11.dtd">
<!-- Generated by graphviz version 14.1.5 (0)
 -->
<!-- Title: ESNModel Pages: 1 -->
<svg width="433pt" height="173pt"
 viewBox="0.00 0.00 433.00 173.00" xmlns="http://www.w3.org/2000/svg" xmlns:xlink="http://www.w3.org/1999/xlink">
<g id="graph0" class="graph" transform="scale(1 1) rotate(0) translate(28.8 143.8)">
<title>ESNModel</title>
<polygon fill="white" stroke="none" points="-28.8,28.8 -28.8,-143.8 403.84,-143.8 403.84,28.8 -28.8,28.8"/>
<!-- Input_1 -->
<g id="node1" class="node">
<title>Input_1</title>
<ellipse fill="#e2f7c5" stroke="#578417" stroke-width="1.5" cx="29.9" cy="-57" rx="29.9" ry="18"/>
<text xml:space="preserve" text-anchor="middle" x="29.9" y="-51.2" font-family="Helvetica Neue,Helvetica,Arial,sans-serif" font-size="14.00" fill="#1a2332">Input</text>
</g>
<!-- ESNLayer_1 -->
<g id="node2" class="node">
<title>ESNLayer_1</title>
<path fill="#c5d4f7" stroke="#173784" stroke-width="1.5" d="M183.29,-75C183.29,-75 129.79,-75 129.79,-75 123.79,-75 117.79,-69 117.79,-63 117.79,-63 117.79,-51 117.79,-51 117.79,-45 123.79,-39 129.79,-39 129.79,-39 183.29,-39 183.29,-39 189.29,-39 195.29,-45 195.29,-51 195.29,-51 195.29,-63 195.29,-63 195.29,-69 189.29,-75 183.29,-75"/>
<text xml:space="preserve" text-anchor="middle" x="156.54" y="-51.2" font-family="Helvetica Neue,Helvetica,Arial,sans-serif" font-size="14.00" fill="#1a2332">ESNLayer</text>
</g>
<!-- Input_1&#45;&gt;ESNLayer_1 -->
<g id="edge1" class="edge">
<title>Input_1&#45;&gt;ESNLayer_1</title>
<path fill="none" stroke="#8b9cb6" stroke-width="1.2" d="M60.44,-57C74.91,-57 92.67,-57 108.91,-57"/>
<polygon fill="#8b9cb6" stroke="#8b9cb6" stroke-width="1.2" points="115.78,-57 108.78,-60.15 113.74,-57.1 108.78,-57.1 108.78,-57 108.78,-56.9 113.74,-56.9 108.78,-53.85 115.78,-57"/>
</g>
<!-- CGReadoutLayer_1 -->
<g id="node3" class="node">
<title>CGReadoutLayer_1</title>
<path fill="#f7c5c5" stroke="#841717" stroke-width="1.5" d="M363.04,-115C363.04,-115 265.29,-115 265.29,-115 259.29,-115 253.29,-109 253.29,-103 253.29,-103 253.29,-91 253.29,-91 253.29,-85 259.29,-79 265.29,-79 265.29,-79 363.04,-79 363.04,-79 369.04,-79 375.04,-85 375.04,-91 375.04,-91 375.04,-103 375.04,-103 375.04,-109 369.04,-115 363.04,-115"/>
<text xml:space="preserve" text-anchor="middle" x="314.17" y="-91.2" font-family="Helvetica Neue,Helvetica,Arial,sans-serif" font-size="14.00" fill="#1a2332">CGReadoutLayer</text>
</g>
<!-- ESNLayer_1&#45;&gt;CGReadoutLayer_1 -->
<g id="edge2" class="edge">
<title>ESNLayer_1&#45;&gt;CGReadoutLayer_1</title>
<path fill="none" stroke="#8b9cb6" stroke-width="1.2" d="M196.01,-66.89C210.71,-70.67 227.95,-75.1 244.61,-79.38"/>
<polygon fill="#8b9cb6" stroke="#8b9cb6" stroke-width="1.2" points="251.32,-81.1 243.75,-82.41 249.32,-80.69 244.51,-79.46 244.54,-79.36 244.56,-79.26 249.37,-80.5 245.32,-76.31 251.32,-81.1"/>
</g>
<!-- CGReadoutLayer_2 -->
<g id="node4" class="node">
<title>CGReadoutLayer_2</title>
<path fill="#f7c5c5" stroke="#841717" stroke-width="1.5" d="M363.04,-36C363.04,-36 265.29,-36 265.29,-36 259.29,-36 253.29,-30 253.29,-24 253.29,-24 253.29,-12 253.29,-12 253.29,-6 259.29,0 265.29,0 265.29,0 363.04,0 363.04,0 369.04,0 375.04,-6 375.04,-12 375.04,-12 375.04,-24 375.04,-24 375.04,-30 369.04,-36 363.04,-36"/>
<text xml:space="preserve" text-anchor="middle" x="314.17" y="-12.2" font-family="Helvetica Neue,Helvetica,Arial,sans-serif" font-size="14.00" fill="#1a2332">CGReadoutLayer</text>
</g>
<!-- ESNLayer_1&#45;&gt;CGReadoutLayer_2 -->
<g id="edge3" class="edge">
<title>ESNLayer_1&#45;&gt;CGReadoutLayer_2</title>
<path fill="none" stroke="#8b9cb6" stroke-width="1.2" d="M196.01,-47.36C210.71,-43.68 227.95,-39.36 244.61,-35.18"/>
<polygon fill="#8b9cb6" stroke="#8b9cb6" stroke-width="1.2" points="251.31,-33.5 245.29,-38.26 249.36,-34.09 244.55,-35.3 244.52,-35.2 244.5,-35.11 249.31,-33.9 243.76,-32.15 251.31,-33.5"/>
</g>
</g>
</svg>
