<?xml version="1.0" encoding="UTF-8" standalone="no"?>
<!DOCTYPE svg PUBLIC "-//W3C//DTD SVG 1.1//EN"
 "http://www.w3.org/Graphics/SVG/1.1/DTD/svg11.dtd">
<!-- Generated by graphviz version 14.1.5 (0)
 -->
<!-- Title: ESNModel Pages: 1 -->
<svg width="433pt" height="94pt"
 viewBox="0.00 0.00 433.00 94.00" xmlns="http://www.w3.org/2000/svg" xmlns:xlink="http://www.w3.org/1999/xlink">
<g id="graph0" class="graph" transform="scale(1 1) rotate(0) translate(28.8 64.8)">
<title>ESNModel</title>
<polygon fill="white" stroke="none" points="-28.8,28.8 -28.8,-64.8 403.84,-64.8 403.84,28.8 -28.8,28.8"/>
<!-- Input_1 -->
<g id="node1" class="node">
<title>Input_1</title>
<ellipse fill="#e2f7c5" stroke="#578417" stroke-width="1.5" cx="29.9" cy="-18" rx="29.9" ry="18"/>
<text xml:space="preserve" text-anchor="middle" x="29.9" y="-12.2" font-family="Helvetica Neue,Helvetica,Arial,sans-serif" font-size="14.00" fill="#1a2332">Input</text>
</g>
<!-- ESNLayer_1 -->
<g id="node2" class="node">
<title>ESNLayer_1</title>
<path fill="#c5d4f7" stroke="#173784" stroke-width="1.5" d="M183.29,-36C183.29,-36 129.79,-36 129.79,-36 123.79,-36 117.79,-30 117.79,-24 117.79,-24 117.79,-12 117.79,-12 117.79,-6 123.79,0 129.79,0 129.79,0 183.29,0 183.29,0 189.29,0 195.29,-6 195.29,-12 195.29,-12 195.29,-24 195.29,-24 195.29,-30 189.29,-36 183.29,-36"/>
<text xml:space="preserve" text-anchor="middle" x="156.54" y="-12.2" font-family="Helvetica Neue,Helvetica,Arial,sans-serif" font-size="14.00" fill="#1a2332">ESNLayer</text>
</g>
<!-- Input_1&#45;&gt;ESNLayer_1 -->
<g id="edge1" class="edge">
<title>Input_1&#45;&gt;ESNLayer_1</title>
<path fill="none" stroke="#8b9cb6" stroke-width="1.2" d="M60.44,-18C74.91,-18 92.67,-18 108.91,-18"/>
<polygon fill="#8b9cb6" stroke="#8b9cb6" stroke-width="1.2" points="115.78,-18 108.78,-21.15 113.74,-18.1 108.78,-18.1 108.78,-18 108.78,-17.9 113.74,-17.9 108.78,-14.85 115.78,-18"/>
</g>
<!-- CGReadoutLayer_1 -->
<g id="node3" class="node">
<title>CGReadoutLayer_1</title>
<path fill="#f7c5c5" stroke="#841717" stroke-width="1.5" d="M363.04,-36C363.04,-36 265.29,-36 265.29,-36 259.29,-36 253.29,-30 253.29,-24 253.29,-24 253.29,-12 253.29,-12 253.29,-6 259.29,0 265.29,0 265.29,0 363.04,0 363.04,0 369.04,0 375.04,-6 375.04,-12 375.04,-12 375.04,-24 375.04,-24 375.04,-30 369.04,-36 363.04,-36"/>
<text xml:space="preserve" text-anchor="middle" x="314.17" y="-12.2" font-family="Helvetica Neue,Helvetica,Arial,sans-serif" font-size="14.00" fill="#1a2332">CGReadoutLayer</text>
</g>
<!-- ESNLayer_1&#45;&gt;CGReadoutLayer_1 -->
<g id="edge2" class="edge">
<title>ESNLayer_1&#45;&gt;CGReadoutLayer_1</title>
<path fill="none" stroke="#8b9cb6" stroke-width="1.2" d="M196.01,-18C210.71,-18 227.95,-18 244.61,-18"/>
<polygon fill="#8b9cb6" stroke="#8b9cb6" stroke-width="1.2" points="251.27,-18 244.27,-21.15 249.23,-18.1 244.27,-18.1 244.27,-18 244.27,-17.9 249.23,-17.9 244.27,-14.85 251.27,-18"/>
</g>
</g>
</svg>
