<?xml version="1.0" encoding="UTF-8" standalone="no"?>
<!DOCTYPE svg PUBLIC "-//W3C//DTD SVG 1.1//EN"
 "http://www.w3.org/Graphics/SVG/1.1/DTD/svg11.dtd">
<!-- Generated by graphviz version 14.1.5 (0)
 -->
<!-- Title: ESNModel Pages: 1 -->
<svg width="451pt" height="94pt"
 viewBox="0.00 0.00 451.00 94.00" xmlns="http://www.w3.org/2000/svg" xmlns:xlink="http://www.w3.org/1999/xlink">
<g id="graph0" class="graph" transform="scale(1 1) rotate(0) translate(28.8 64.8)">
<title>ESNModel</title>
<polygon fill="white" stroke="none" points="-28.8,28.8 -28.8,-64.8 421.84,-64.8 421.84,28.8 -28.8,28.8"/>
<!-- Input_1 -->
<g id="node1" class="node">
<title>Input_1</title>
<ellipse fill="#c5d4f7" stroke="#173784" stroke-width="1.5" cx="29.9" cy="-18" rx="29.9" ry="18"/>
<text xml:space="preserve" text-anchor="middle" x="29.9" y="-12.2" font-family="Helvetica Neue,Helvetica,Arial,sans-serif" font-size="14.00" fill="#1a2332">Input</text>
</g>
<!-- NGReservoir_1 -->
<g id="node2" class="node">
<title>NGReservoir_1</title>
<path fill="#e2f7c5" stroke="#578417" stroke-width="1.5" d="M201.29,-36C201.29,-36 129.79,-36 129.79,-36 123.79,-36 117.79,-30 117.79,-24 117.79,-24 117.79,-12 117.79,-12 117.79,-6 123.79,0 129.79,0 129.79,0 201.29,0 201.29,0 207.29,0 213.29,-6 213.29,-12 213.29,-12 213.29,-24 213.29,-24 213.29,-30 207.29,-36 201.29,-36"/>
<text xml:space="preserve" text-anchor="middle" x="165.54" y="-12.2" font-family="Helvetica Neue,Helvetica,Arial,sans-serif" font-size="14.00" fill="#1a2332">NGReservoir</text>
</g>
<!-- Input_1&#45;&gt;NGReservoir_1 -->
<g id="edge1" class="edge">
<title>Input_1&#45;&gt;NGReservoir_1</title>
<path fill="none" stroke="#8b9cb6" stroke-width="1.2" d="M60.23,-18C74.56,-18 92.29,-18 109.04,-18"/>
<polygon fill="#8b9cb6" stroke="#8b9cb6" stroke-width="1.2" points="115.7,-18 108.7,-21.15 113.66,-18.1 108.7,-18.1 108.7,-18 108.7,-17.9 113.66,-17.9 108.7,-14.85 115.7,-18"/>
</g>
<!-- CGReadoutLayer_1 -->
<g id="node3" class="node">
<title>CGReadoutLayer_1</title>
<path fill="#f7c5c5" stroke="#841717" stroke-width="1.5" d="M381.04,-36C381.04,-36 283.29,-36 283.29,-36 277.29,-36 271.29,-30 271.29,-24 271.29,-24 271.29,-12 271.29,-12 271.29,-6 277.29,0 283.29,0 283.29,0 381.04,0 381.04,0 387.04,0 393.04,-6 393.04,-12 393.04,-12 393.04,-24 393.04,-24 393.04,-30 387.04,-36 381.04,-36"/>
<text xml:space="preserve" text-anchor="middle" x="332.17" y="-12.2" font-family="Helvetica Neue,Helvetica,Arial,sans-serif" font-size="14.00" fill="#1a2332">CGReadoutLayer</text>
</g>
<!-- NGReservoir_1&#45;&gt;CGReadoutLayer_1 -->
<g id="edge2" class="edge">
<title>NGReservoir_1&#45;&gt;CGReadoutLayer_1</title>
<path fill="none" stroke="#8b9cb6" stroke-width="1.2" d="M213.72,-18C228.99,-18 246.24,-18 262.73,-18"/>
<polygon fill="#8b9cb6" stroke="#8b9cb6" stroke-width="1.2" points="269.29,-18 262.29,-21.15 267.25,-18.1 262.29,-18.1 262.29,-18 262.29,-17.9 267.25,-17.9 262.29,-14.85 269.29,-18"/>
</g>
</g>
</svg>
