<?xml version="1.0" encoding="UTF-8" standalone="no"?>
<!DOCTYPE svg PUBLIC "-//W3C//DTD SVG 1.1//EN"
 "http://www.w3.org/Graphics/SVG/1.1/DTD/svg11.dtd">
<!-- Generated by graphviz version 14.1.5 (0)
 -->
<!-- Title: ESNModel Pages: 1 -->
<svg width="433pt" height="173pt"
 viewBox="0.00 0.00 433.00 173.00" xmlns="http://www.w3.org/2000/svg" xmlns:xlink="http://www.w3.org/1999/xlink">
<g id="graph0" class="graph" transform="scale(1 1) rotate(0) translate(28.8 143.8)">
<title>ESNModel</title>
<polygon fill="white" stroke="none" points="-28.8,28.8 -28.8,-143.8 403.84,-143.8 403.84,28.8 -28.8,28.8"/>
<!-- Input_1 -->
<g id="node1" class="node">
<title>Input_1</title>
<ellipse fill="#e2f7c5" stroke="#578417" stroke-width="1.5" cx="29.9" cy="-97" rx="29.9" ry="18"/>
<text xml:space="preserve" text-anchor="middle" x="29.9" y="-91.2" font-family="Helvetica Neue,Helvetica,Arial,sans-serif" font-size="14.00" fill="#1a2332">Input</text>
</g>
<!-- ESNLayer_1 -->
<g id="node3" class="node">
<title>ESNLayer_1</title>
<path fill="#c5d4f7" stroke="#173784" stroke-width="1.5" d="M183.29,-75C183.29,-75 129.79,-75 129.79,-75 123.79,-75 117.79,-69 117.79,-63 117.79,-63 117.79,-51 117.79,-51 117.79,-45 123.79,-39 129.79,-39 129.79,-39 183.29,-39 183.29,-39 189.29,-39 195.29,-45 195.29,-51 195.29,-51 195.29,-63 195.29,-63 195.29,-69 189.29,-75 183.29,-75"/>
<text xml:space="preserve" text-anchor="middle" x="156.54" y="-51.2" font-family="Helvetica Neue,Helvetica,Arial,sans-serif" font-size="14.00" fill="#1a2332">ESNLayer</text>
</g>
<!-- Input_1&#45;&gt;ESNLayer_1 -->
<g id="edge1" class="edge">
<title>Input_1&#45;&gt;ESNLayer_1</title>
<path fill="none" stroke="#8b9cb6" stroke-width="1.2" d="M57.03,-88.61C72.13,-83.77 91.58,-77.53 109.2,-71.87"/>
<polygon fill="#8b9cb6" stroke="#8b9cb6" stroke-width="1.2" points="115.75,-69.77 110.05,-74.91 113.84,-70.49 109.12,-72 109.09,-71.91 109.05,-71.81 113.78,-70.3 108.12,-68.91 115.75,-69.77"/>
</g>
<!-- Input_2 -->
<g id="node2" class="node">
<title>Input_2</title>
<ellipse fill="#e2f7c5" stroke="#578417" stroke-width="1.5" cx="29.9" cy="-18" rx="29.9" ry="18"/>
<text xml:space="preserve" text-anchor="middle" x="29.9" y="-12.2" font-family="Helvetica Neue,Helvetica,Arial,sans-serif" font-size="14.00" fill="#1a2332">Input</text>
</g>
<!-- Input_2&#45;&gt;ESNLayer_1 -->
<g id="edge2" class="edge">
<title>Input_2&#45;&gt;ESNLayer_1</title>
<path fill="none" stroke="#8b9cb6" stroke-width="1.2" d="M57.33,-26.27C72.45,-31 91.85,-37.07 109.41,-42.56"/>
<polygon fill="#8b9cb6" stroke="#8b9cb6" stroke-width="1.2" points="115.93,-44.6 108.3,-45.52 113.95,-44.09 109.21,-42.61 109.24,-42.51 109.27,-42.42 114.01,-43.9 110.19,-39.51 115.93,-44.6"/>
</g>
<!-- CGReadoutLayer_1 -->
<g id="node4" class="node">
<title>CGReadoutLayer_1</title>
<path fill="#f7c5c5" stroke="#841717" stroke-width="1.5" d="M363.04,-75C363.04,-75 265.29,-75 265.29,-75 259.29,-75 253.29,-69 253.29,-63 253.29,-63 253.29,-51 253.29,-51 253.29,-45 259.29,-39 265.29,-39 265.29,-39 363.04,-39 363.04,-39 369.04,-39 375.04,-45 375.04,-51 375.04,-51 375.04,-63 375.04,-63 375.04,-69 369.04,-75 363.04,-75"/>
<text xml:space="preserve" text-anchor="middle" x="314.17" y="-51.2" font-family="Helvetica Neue,Helvetica,Arial,sans-serif" font-size="14.00" fill="#1a2332">CGReadoutLayer</text>
</g>
<!-- ESNLayer_1&#45;&gt;CGReadoutLayer_1 -->
<g id="edge3" class="edge">
<title>ESNLayer_1&#45;&gt;CGReadoutLayer_1</title>
<path fill="none" stroke="#8b9cb6" stroke-width="1.2" d="M196.01,-57C210.71,-57 227.95,-57 244.61,-57"/>
<polygon fill="#8b9cb6" stroke="#8b9cb6" stroke-width="1.2" points="251.27,-57 244.27,-60.15 249.23,-57.1 244.27,-57.1 244.27,-57 244.27,-56.9 249.23,-56.9 244.27,-53.85 251.27,-57"/>
</g>
</g>
</svg>
