<?xml version="1.0" encoding="UTF-8" standalone="no"?>
<!DOCTYPE svg PUBLIC "-//W3C//DTD SVG 1.1//EN"
 "http://www.w3.org/Graphics/SVG/1.1/DTD/svg11.dtd">
<!-- Generated by graphviz version 14.1.5 (0)
 -->
<!-- Title: ESNModel Pages: 1 -->
<svg width="583pt" height="173pt"
 viewBox="0.00 0.00 583.00 173.00" xmlns="http://www.w3.org/2000/svg" xmlns:xlink="http://www.w3.org/1999/xlink">
<g id="graph0" class="graph" transform="scale(1 1) rotate(0) translate(28.8 143.8)">
<title>ESNModel</title>
<polygon fill="white" stroke="none" points="-28.8,28.8 -28.8,-143.8 554.34,-143.8 554.34,28.8 -28.8,28.8"/>
<!-- Input_1 -->
<g id="node1" class="node">
<title>Input_1</title>
<ellipse fill="#f7c5f1" stroke="#841777" stroke-width="1.5" cx="29.9" cy="-57" rx="29.9" ry="18"/>
<text xml:space="preserve" text-anchor="middle" x="29.9" y="-51.2" font-family="Helvetica Neue,Helvetica,Arial,sans-serif" font-size="14.00" fill="#1a2332">Input</text>
</g>
<!-- ESNLayer_1 -->
<g id="node2" class="node">
<title>ESNLayer_1</title>
<path fill="#e2f7c5" stroke="#578417" stroke-width="1.5" d="M183.29,-115C183.29,-115 129.79,-115 129.79,-115 123.79,-115 117.79,-109 117.79,-103 117.79,-103 117.79,-91 117.79,-91 117.79,-85 123.79,-79 129.79,-79 129.79,-79 183.29,-79 183.29,-79 189.29,-79 195.29,-85 195.29,-91 195.29,-91 195.29,-103 195.29,-103 195.29,-109 189.29,-115 183.29,-115"/>
<text xml:space="preserve" text-anchor="middle" x="156.54" y="-91.2" font-family="Helvetica Neue,Helvetica,Arial,sans-serif" font-size="14.00" fill="#1a2332">ESNLayer</text>
</g>
<!-- Input_1&#45;&gt;ESNLayer_1 -->
<g id="edge1" class="edge">
<title>Input_1&#45;&gt;ESNLayer_1</title>
<path fill="none" stroke="#8b9cb6" stroke-width="1.2" d="M57.03,-65.39C72.13,-70.23 91.58,-76.47 109.2,-82.13"/>
<polygon fill="#8b9cb6" stroke="#8b9cb6" stroke-width="1.2" points="115.75,-84.23 108.12,-85.09 113.78,-83.7 109.05,-82.19 109.09,-82.09 109.12,-82 113.84,-83.51 110.05,-79.09 115.75,-84.23"/>
</g>
<!-- ESNLayer_2 -->
<g id="node3" class="node">
<title>ESNLayer_2</title>
<path fill="#e2f7c5" stroke="#578417" stroke-width="1.5" d="M183.29,-36C183.29,-36 129.79,-36 129.79,-36 123.79,-36 117.79,-30 117.79,-24 117.79,-24 117.79,-12 117.79,-12 117.79,-6 123.79,0 129.79,0 129.79,0 183.29,0 183.29,0 189.29,0 195.29,-6 195.29,-12 195.29,-12 195.29,-24 195.29,-24 195.29,-30 189.29,-36 183.29,-36"/>
<text xml:space="preserve" text-anchor="middle" x="156.54" y="-12.2" font-family="Helvetica Neue,Helvetica,Arial,sans-serif" font-size="14.00" fill="#1a2332">ESNLayer</text>
</g>
<!-- Input_1&#45;&gt;ESNLayer_2 -->
<g id="edge2" class="edge">
<title>Input_1&#45;&gt;ESNLayer_2</title>
<path fill="none" stroke="#8b9cb6" stroke-width="1.2" d="M57.33,-48.73C72.45,-44 91.85,-37.93 109.41,-32.44"/>
<polygon fill="#8b9cb6" stroke="#8b9cb6" stroke-width="1.2" points="115.93,-30.4 110.19,-35.49 114.01,-31.1 109.27,-32.58 109.24,-32.49 109.21,-32.39 113.95,-30.91 108.3,-29.48 115.93,-30.4"/>
</g>
<!-- Concatenate_1 -->
<g id="node4" class="node">
<title>Concatenate_1</title>
<path fill="#c5d4f7" stroke="#173784" stroke-width="1.5" d="M333.79,-75C333.79,-75 265.29,-75 265.29,-75 259.29,-75 253.29,-69 253.29,-63 253.29,-63 253.29,-51 253.29,-51 253.29,-45 259.29,-39 265.29,-39 265.29,-39 333.79,-39 333.79,-39 339.79,-39 345.79,-45 345.79,-51 345.79,-51 345.79,-63 345.79,-63 345.79,-69 339.79,-75 333.79,-75"/>
<text xml:space="preserve" text-anchor="middle" x="299.54" y="-51.2" font-family="Helvetica Neue,Helvetica,Arial,sans-serif" font-size="14.00" fill="#1a2332">Concatenate</text>
</g>
<!-- ESNLayer_1&#45;&gt;Concatenate_1 -->
<g id="edge3" class="edge">
<title>ESNLayer_1&#45;&gt;Concatenate_1</title>
<path fill="none" stroke="#8b9cb6" stroke-width="1.2" d="M195.7,-86.18C210.77,-81.9 228.36,-76.91 244.68,-72.28"/>
<polygon fill="#8b9cb6" stroke="#8b9cb6" stroke-width="1.2" points="251.17,-70.44 245.3,-75.38 249.24,-71.09 244.46,-72.45 244.44,-72.35 244.41,-72.25 249.18,-70.9 243.58,-69.32 251.17,-70.44"/>
</g>
<!-- ESNLayer_2&#45;&gt;Concatenate_1 -->
<g id="edge4" class="edge">
<title>ESNLayer_2&#45;&gt;Concatenate_1</title>
<path fill="none" stroke="#8b9cb6" stroke-width="1.2" d="M195.7,-28.55C210.77,-32.72 228.36,-37.59 244.68,-42.1"/>
<polygon fill="#8b9cb6" stroke="#8b9cb6" stroke-width="1.2" points="251.17,-43.9 243.58,-45.07 249.18,-43.45 244.39,-42.13 244.42,-42.03 244.45,-41.93 249.23,-43.26 245.26,-38.99 251.17,-43.9"/>
</g>
<!-- CGReadoutLayer_1 -->
<g id="node5" class="node">
<title>CGReadoutLayer_1</title>
<path fill="#f7c5c5" stroke="#841717" stroke-width="1.5" d="M513.54,-75C513.54,-75 415.79,-75 415.79,-75 409.79,-75 403.79,-69 403.79,-63 403.79,-63 403.79,-51 403.79,-51 403.79,-45 409.79,-39 415.79,-39 415.79,-39 513.54,-39 513.54,-39 519.54,-39 525.54,-45 525.54,-51 525.54,-51 525.54,-63 525.54,-63 525.54,-69 519.54,-75 513.54,-75"/>
<text xml:space="preserve" text-anchor="middle" x="464.67" y="-51.2" font-family="Helvetica Neue,Helvetica,Arial,sans-serif" font-size="14.00" fill="#1a2332">CGReadoutLayer</text>
</g>
<!-- Concatenate_1&#45;&gt;CGReadoutLayer_1 -->
<g id="edge5" class="edge">
<title>Concatenate_1&#45;&gt;CGReadoutLayer_1</title>
<path fill="none" stroke="#8b9cb6" stroke-width="1.2" d="M346.42,-57C361.42,-57 378.44,-57 394.76,-57"/>
<polygon fill="#8b9cb6" stroke="#8b9cb6" stroke-width="1.2" points="401.75,-57 394.75,-60.15 399.72,-57.1 394.75,-57.1 394.75,-57 394.75,-56.9 399.72,-56.9 394.75,-53.85 401.75,-57"/>
</g>
</g>
</svg>
