<?xml version="1.0" encoding="UTF-8" standalone="no"?>
<!DOCTYPE svg PUBLIC "-//W3C//DTD SVG 1.1//EN"
 "http://www.w3.org/Graphics/SVG/1.1/DTD/svg11.dtd">
<!-- Generated by graphviz version 14.1.5 (0)
 -->
<!-- Title: ESNModel Pages: 1 -->
<svg width="801pt" height="300pt"
 viewBox="0.00 0.00 801.00 300.00" xmlns="http://www.w3.org/2000/svg" xmlns:xlink="http://www.w3.org/1999/xlink">
<g id="graph0" class="graph" transform="scale(1 1) rotate(0) translate(28.8 270.8)">
<title>ESNModel</title>
<polygon fill="white" stroke="none" points="-28.8,28.8 -28.8,-270.8 772.34,-270.8 772.34,28.8 -28.8,28.8"/>
<!-- Input_1 -->
<g id="node1" class="node">
<title>Input_1</title>
<ellipse fill="#f7c5f1" stroke="#841777" stroke-width="1.5" cx="29.9" cy="-18" rx="29.9" ry="18"/>
<text xml:space="preserve" text-anchor="middle" x="29.9" y="-12.2" font-family="Helvetica Neue,Helvetica,Arial,sans-serif" font-size="14.00" fill="#1a2332">Input</text>
</g>
<!-- ESNLayer_1 -->
<g id="node2" class="node">
<title>ESNLayer_1</title>
<path fill="#e2f7c5" stroke="#578417" stroke-width="1.5" d="M183.29,-121C183.29,-121 129.79,-121 129.79,-121 123.79,-121 117.79,-115 117.79,-109 117.79,-109 117.79,-97 117.79,-97 117.79,-91 123.79,-85 129.79,-85 129.79,-85 183.29,-85 183.29,-85 189.29,-85 195.29,-91 195.29,-97 195.29,-97 195.29,-109 195.29,-109 195.29,-115 189.29,-121 183.29,-121"/>
<text xml:space="preserve" text-anchor="middle" x="156.54" y="-97.2" font-family="Helvetica Neue,Helvetica,Arial,sans-serif" font-size="14.00" fill="#1a2332">ESNLayer</text>
</g>
<!-- Input_1&#45;&gt;ESNLayer_1 -->
<g id="edge1" class="edge">
<title>Input_1&#45;&gt;ESNLayer_1</title>
<path fill="none" stroke="#8b9cb6" stroke-width="1.2" d="M50.65,-31.47C69.68,-44.45 98.87,-64.35 121.63,-79.87"/>
<polygon fill="#8b9cb6" stroke="#8b9cb6" stroke-width="1.2" points="127.26,-83.71 119.7,-82.37 125.52,-82.65 121.42,-79.85 121.48,-79.77 121.53,-79.69 125.63,-82.48 123.25,-77.17 127.26,-83.71"/>
</g>
<!-- Concatenate_1 -->
<g id="node5" class="node">
<title>Concatenate_1</title>
<path fill="#c5d4f7" stroke="#173784" stroke-width="1.5" d="M551.79,-121C551.79,-121 483.29,-121 483.29,-121 477.29,-121 471.29,-115 471.29,-109 471.29,-109 471.29,-97 471.29,-97 471.29,-91 477.29,-85 483.29,-85 483.29,-85 551.79,-85 551.79,-85 557.79,-85 563.79,-91 563.79,-97 563.79,-97 563.79,-109 563.79,-109 563.79,-115 557.79,-121 551.79,-121"/>
<text xml:space="preserve" text-anchor="middle" x="517.54" y="-97.2" font-family="Helvetica Neue,Helvetica,Arial,sans-serif" font-size="14.00" fill="#1a2332">Concatenate</text>
</g>
<!-- Input_1&#45;&gt;Concatenate_1 -->
<g id="edge4" class="edge">
<title>Input_1&#45;&gt;Concatenate_1</title>
<path fill="none" stroke="#8b9cb6" stroke-width="1.2" d="M59.11,-22.94C137.55,-36.67 359.28,-75.48 462.48,-93.54"/>
<polygon fill="#8b9cb6" stroke="#8b9cb6" stroke-width="1.2" points="469.15,-94.71 461.71,-96.6 467.13,-94.45 462.24,-93.6 462.26,-93.5 462.27,-93.4 467.16,-94.26 462.8,-90.4 469.15,-94.71"/>
</g>
<!-- Power_1 -->
<g id="node3" class="node">
<title>Power_1</title>
<path fill="#c5f7ef" stroke="#178472" stroke-width="1.5" d="M348.42,-242C348.42,-242 318.17,-242 318.17,-242 312.17,-242 306.17,-236 306.17,-230 306.17,-230 306.17,-218 306.17,-218 306.17,-212 312.17,-206 318.17,-206 318.17,-206 348.42,-206 348.42,-206 354.42,-206 360.42,-212 360.42,-218 360.42,-218 360.42,-230 360.42,-230 360.42,-236 354.42,-242 348.42,-242"/>
<text xml:space="preserve" text-anchor="middle" x="333.29" y="-218.2" font-family="Helvetica Neue,Helvetica,Arial,sans-serif" font-size="14.00" fill="#1a2332">Power</text>
</g>
<!-- ESNLayer_1&#45;&gt;Power_1 -->
<g id="edge2" class="edge">
<title>ESNLayer_1&#45;&gt;Power_1</title>
<path fill="none" stroke="#8b9cb6" stroke-width="1.2" d="M176.21,-121.48C194.73,-139.18 224.43,-165.95 253.29,-185 267.3,-194.24 283.8,-202.72 298.1,-209.4"/>
<polygon fill="#8b9cb6" stroke="#8b9cb6" stroke-width="1.2" points="304.45,-212.31 296.78,-212.26 302.56,-211.55 298.04,-209.49 298.09,-209.4 298.13,-209.3 302.64,-211.37 299.4,-206.53 304.45,-212.31"/>
</g>
<!-- SelectiveExponentiation_1 -->
<g id="node4" class="node">
<title>SelectiveExponentiation_1</title>
<path fill="#f7e0c5" stroke="#845217" stroke-width="1.5" d="M401.29,-163C401.29,-163 265.29,-163 265.29,-163 259.29,-163 253.29,-157 253.29,-151 253.29,-151 253.29,-139 253.29,-139 253.29,-133 259.29,-127 265.29,-127 265.29,-127 401.29,-127 401.29,-127 407.29,-127 413.29,-133 413.29,-139 413.29,-139 413.29,-151 413.29,-151 413.29,-157 407.29,-163 401.29,-163"/>
<text xml:space="preserve" text-anchor="middle" x="333.29" y="-139.2" font-family="Helvetica Neue,Helvetica,Arial,sans-serif" font-size="14.00" fill="#1a2332">SelectiveExponentiation</text>
</g>
<!-- ESNLayer_1&#45;&gt;SelectiveExponentiation_1 -->
<g id="edge3" class="edge">
<title>ESNLayer_1&#45;&gt;SelectiveExponentiation_1</title>
<path fill="none" stroke="#8b9cb6" stroke-width="1.2" d="M195.89,-112.22C210.88,-115.82 228.71,-120.1 246.46,-124.37"/>
<polygon fill="#8b9cb6" stroke="#8b9cb6" stroke-width="1.2" points="253.17,-125.98 245.63,-127.41 251.17,-125.6 246.34,-124.44 246.37,-124.35 246.39,-124.25 251.21,-125.41 247.1,-121.28 253.17,-125.98"/>
</g>
<!-- ESNLayer_1&#45;&gt;Concatenate_1 -->
<g id="edge5" class="edge">
<title>ESNLayer_1&#45;&gt;Concatenate_1</title>
<path fill="none" stroke="#8b9cb6" stroke-width="1.2" d="M195.96,-103C260.15,-103 389.34,-103 462.61,-103"/>
<polygon fill="#8b9cb6" stroke="#8b9cb6" stroke-width="1.2" points="469.36,-103 462.36,-106.15 467.32,-103.1 462.36,-103.1 462.36,-103 462.36,-102.9 467.32,-102.9 462.36,-99.85 469.36,-103"/>
</g>
<!-- Power_1&#45;&gt;Concatenate_1 -->
<g id="edge6" class="edge">
<title>Power_1&#45;&gt;Concatenate_1</title>
<path fill="none" stroke="#8b9cb6" stroke-width="1.2" d="M361.03,-212.53C376.7,-205.38 396.63,-195.56 413.29,-185 440.69,-167.64 469.38,-144.38 489.55,-127.07"/>
<polygon fill="#8b9cb6" stroke="#8b9cb6" stroke-width="1.2" points="494.68,-122.63 491.45,-129.59 493.2,-124.04 489.45,-127.29 489.38,-127.21 489.32,-127.14 493.07,-123.89 487.32,-124.83 494.68,-122.63"/>
</g>
<!-- SelectiveExponentiation_1&#45;&gt;Concatenate_1 -->
<g id="edge7" class="edge">
<title>SelectiveExponentiation_1&#45;&gt;Concatenate_1</title>
<path fill="none" stroke="#8b9cb6" stroke-width="1.2" d="M413.97,-126.64C430.44,-122.84 447.43,-118.93 462.72,-115.4"/>
<polygon fill="#8b9cb6" stroke="#8b9cb6" stroke-width="1.2" points="469.12,-113.93 463.01,-118.57 467.16,-114.48 462.32,-115.6 462.3,-115.5 462.28,-115.4 467.11,-114.29 461.59,-112.43 469.12,-113.93"/>
</g>
<!-- CGReadoutLayer_1 -->
<g id="node6" class="node">
<title>CGReadoutLayer_1</title>
<path fill="#f7c5c5" stroke="#841717" stroke-width="1.5" d="M731.54,-121C731.54,-121 633.79,-121 633.79,-121 627.79,-121 621.79,-115 621.79,-109 621.79,-109 621.79,-97 621.79,-97 621.79,-91 627.79,-85 633.79,-85 633.79,-85 731.54,-85 731.54,-85 737.54,-85 743.54,-91 743.54,-97 743.54,-97 743.54,-109 743.54,-109 743.54,-115 737.54,-121 731.54,-121"/>
<text xml:space="preserve" text-anchor="middle" x="682.67" y="-97.2" font-family="Helvetica Neue,Helvetica,Arial,sans-serif" font-size="14.00" fill="#1a2332">CGReadoutLayer</text>
</g>
<!-- Concatenate_1&#45;&gt;CGReadoutLayer_1 -->
<g id="edge8" class="edge">
<title>Concatenate_1&#45;&gt;CGReadoutLayer_1</title>
<path fill="none" stroke="#8b9cb6" stroke-width="1.2" d="M564.42,-103C579.42,-103 596.44,-103 612.76,-103"/>
<polygon fill="#8b9cb6" stroke="#8b9cb6" stroke-width="1.2" points="619.75,-103 612.75,-106.15 617.72,-103.1 612.75,-103.1 612.75,-103 612.75,-102.9 617.72,-102.9 612.75,-99.85 619.75,-103"/>
</g>
</g>
</svg>
