<svg xmlns="http://www.w3.org/2000/svg" viewBox="0 0 64 64"><rect x="1" y="1" width="62" height="62" rx="14" fill="#1d6f54"/><path d="M46.8 33.1L46.9 32.8L47.0 32.4L47.1 32.1L47.2 31.7L47.2 31.4L47.3 31.0L47.3 30.7L47.4 30.3L47.4 30.0L47.4 29.6L47.4 29.3L47.4 28.9L47.4 28.6L47.4 28.2L47.3 27.9L47.3 27.5L47.2 27.1L47.1 26.8L47.1 26.4L47.0 26.1L46.9 25.7L46.8 25.4L46.6 25.0L46.5 24.7L46.4 24.3L46.2 24.0L46.0 23.7L45.9 23.3L45.7 23.0L45.5 22.7L45.3 22.3L45.1 22.0L44.8 21.7L44.6 21.4L44.4 21.1L44.1 20.8L43.8 20.5L43.6 20.3L43.3 20.0L43.0 19.7L42.7 19.5L42.4 19.2L42.1 19.0L41.8 18.7L41.5 18.5L41.1 18.3L40.8 18.1L40.4 17.8L40.1 17.7L39.7 17.5L39.4 17.3L39.0 17.1L38.6 17.0L38.2 16.8L37.9 16.7L37.5 16.5L37.1 16.4L36.7 16.3L36.3 16.2L35.9 16.1L35.5 16.1L35.1 16.0L34.6 15.9L34.2 15.9L33.8 15.9L33.4 15.8L33.0 15.8L32.6 15.8L32.2 15.8L31.7 15.9L31.3 15.9L30.9 15.9L30.5 16.0L30.1 16.1L29.7 16.1L29.3 16.2L28.9 16.3L28.4 16.5L28.0 16.6L27.7 16.7L27.3 16.9L26.9 17.0L26.5 17.2L26.1 17.4L25.7 17.6L25.4 17.8L25.0 18.0L24.6 18.2L24.3 18.4L23.9 18.7L23.6 18.9L23.3 19.2L23.0 19.4L22.6 19.7L22.3 20.0L22.0 20.3L21.8 20.6L21.5 20.9L21.2 21.2L20.9 21.6L20.7 21.9L20.5 22.3L20.2 22.6L20.0 23.0L19.8 23.3L19.6 23.7L19.4 24.1L19.2 24.5L19.1 24.9L18.9 25.3L18.8 25.7L18.6 26.1L18.5 26.5L18.4 26.9L18.3 27.3L18.2 27.7L18.2 28.1L18.1 28.6L18.1 29.0L18.0 29.4L18.0 29.9L18.0 30.3L18.0 30.7L18.1 31.2L18.1 31.6L18.1 32.1L18.2 32.5L18.3 32.9L18.4 33.4L18.5 33.8L18.6 34.2L18.7 34.7L18.9 35.1L19.0 35.5L19.2 35.9L19.4 36.4L19.5 36.8L19.7 37.2L20.0 37.6L20.2 38.0L20.4 38.4L20.7 38.8L20.9 39.2L21.2 39.5L21.5 39.9L21.8 40.3L22.1 40.6L22.4 41.0L22.8 41.3L23.1 41.7L23.5 42.0L23.8 42.3L24.2 42.6L24.6 42.9L25.0 43.2L25.4 43.5L25.8 43.7L26.2 44.0L26.6 44.2L27.0 44.5L27.5 44.7L27.9 44.9L28.4 45.1L28.8 45.3L29.3 45.5L29.8 45.7L30.3 45.8L30.7 46.0L31.2 46.1L31.7 46.2L32.2 46.3L32.7 46.4L33.2 46.5L33.7 46.5L34.2 46.6L34.7 46.6L35.2 46.7L35.7 46.7L36.2 46.7L36.7 46.6L37.3 46.6L37.8 46.6L38.3 46.5L38.8 46.4L39.3 46.4L39.8 46.3L40.3 46.1L40.8 46.0L41.3 45.9L41.8 45.7L42.2 45.6L42.7 45.4L43.2 45.2L43.7 45.0L44.1 44.8L44.6 44.5L45.0 44.3L45.5 44.0L45.9 43.7L46.3 43.5L46.8 43.2L47.2 42.9L47.6 42.5L48.0 42.2L48.3 41.9L48.7 41.5L49.1 41.1L49.4 40.8L49.8 40.4L50.1 40.0L50.4 39.6L50.7 39.2L51.0 38.8L51.3 38.3L51.5 37.9L51.8 37.4L52.0 37.0L52.3 36.5L52.5 36.0L52.7 35.6L52.9 35.1L53.0 34.6L53.2 34.1L53.3 33.6L53.5 33.1L53.6 32.6L53.7 32.1L53.7 31.5L53.8 31.0L53.9 30.5L53.9 30.0L53.9 29.4L53.9 28.9L53.9 28.4L53.9 27.8L53.8 27.3L53.8 26.8L53.7 26.2L53.6 25.7L53.5 25.2L53.4 24.6L53.2 24.1L53.1 23.6L52.9 23.1L52.7 22.5L52.5 22.0L52.3 21.5L52.0 21.0L51.8 20.5L51.5 20.0L51.2 19.5L50.9 19.0L50.6 18.6L50.3 18.1L50.0 17.6L49.6 17.2L49.2 16.7L48.9 16.3L48.5 15.9L48.1 15.5L47.6 15.1L47.2 14.7L46.8 14.3L46.3 13.9L45.8 13.5L45.4 13.2L44.9 12.9L44.4 12.5L43.9 12.2L43.3 11.9L42.8 11.6L42.3 11.4L41.7 11.1L41.2 10.8L40.6 10.6L40.0 10.4L39.5 10.2L38.9 10.0L38.3 9.8L37.7 9.7L37.1 9.5L36.5 9.4L35.9 9.3L35.3 9.2L34.7 9.1L34.1 9.1L33.4 9.0L32.8 9.0L32.2 9.0L31.6 9.0L31.0 9.0L30.3 9.1L29.7 9.1L29.1 9.2L28.5 9.3L27.9 9.4L27.2 9.5L26.6 9.7L26.0 9.8L25.4 10.0L24.8 10.2L24.2 10.4L23.7 10.6L23.1 10.9L22.5 11.1L21.9 11.4L21.4 11.7L20.8 12.0L20.3 12.3L19.8 12.6L19.3 13.0L18.7 13.3L18.2 13.7L17.8 14.1L17.3 14.5L16.8 14.9L16.4 15.4L15.9 15.8L15.5 16.3L15.1 16.7L14.7 17.2L14.3 17.7L13.9 18.2L13.6 18.8L13.2 19.3L12.9 19.8L12.6 20.4L12.3 20.9L12.0 21.5L11.8 22.1L11.6 22.7L11.3 23.3L11.1 23.9L10.9 24.5L10.8 25.1L10.6 25.7L10.5 26.3L10.4 27.0L10.3 27.6L10.2 28.2L10.1 28.9L10.1 29.5L10.1 30.2L10.1 30.8L10.1 31.5L10.1 32.1L10.2 32.8L10.3 33.4L10.4 34.1L10.5 34.7L10.6 35.4L10.8 36.0L11.0 36.7L11.2 37.3L11.4 37.9L11.6 38.6L11.9 39.2L12.1 39.8L12.4 40.4L12.7 41.1L13.1 41.7L13.4 42.3L13.8 42.8L14.2 43.4L14.6 44.0L15.0 44.6L15.4 45.1L15.9 45.6L16.3 46.2L16.8 46.7L17.3 47.2L17.8 47.7L18.4 48.2L18.9 48.6L19.5 49.1L20.1 49.5L20.6 50.0L21.2 50.4L21.8 50.8L22.5 51.1L23.1 51.5L23.8 51.9L24.4 52.2L25.1 52.5L25.8 52.8L26.5 53.1L27.1 53.3L27.9 53.6L28.6 53.8L29.3 54.0L30.0 54.2L30.7 54.4L31.5 54.5L32.2 54.7L33.0 54.8L33.7 54.9L34.5 54.9L35.2 55.0L36.0 55.0" fill="none" stroke="#f8f8f6" stroke-width="5.2" stroke-linecap="round" stroke-linejoin="round"/><circle cx="36.0" cy="55.0" r="4.9" fill="#f8f8f6"/></svg>