<svg xmlns="http://www.w3.org/2000/svg" viewBox="0 0 64 64">
  <rect x="1" y="1" width="62" height="62" rx="14" fill="#0e7a5a"/>
  <path d="M14.0 28.6L13.5 30.1L13.1 31.6L12.7 33.1L12.4 34.5L12.2 36.0L12.1 37.3L12.0 38.6L12.0 39.9L12.1 41.0L12.3 42.1L12.6 43.1L12.9 43.9L13.4 44.6L13.9 45.3L14.5 45.8L15.2 46.1L16.0 46.4L16.8 46.5L17.7 46.5L18.7 46.4L19.7 46.2L20.8 45.8L22.0 45.4L23.1 44.9L24.4 44.3L25.6 43.6L26.9 42.8L28.2 42.0L29.5 41.1L30.8 40.2L32.1 39.3L33.4 38.4L34.7 37.4L35.9 36.5L37.1 35.5L38.4 34.6L39.5 33.8L40.6 32.9L41.7 32.1L42.8 31.4L43.8 30.7L44.7 30.1L45.6 29.6L46.4 29.1L47.2 28.7L47.9 28.4L48.5 28.2L49.1 28.0L49.6 27.9L50.1 27.9L50.5 28.0L50.9 28.1L51.2 28.4L51.4 28.7L51.6 29.0L51.8 29.4L51.9 29.9L52.0 30.4L52.0 31.0L52.0 31.6L51.9 32.3L51.8 33.0L51.7 33.8L51.6 34.5L51.4 35.3L51.2 36.1L51.0 36.9L50.7 37.8L50.4 38.6L50.2 39.5L49.9 40.3L49.5 41.1L49.2 41.9L48.9 42.7L48.5 43.5L48.2 44.2L47.8 44.9L47.4 45.6L47.0 46.2L46.7 46.8L46.3 47.3L45.9 47.7L45.5 48.1L45.1 48.5L44.7 48.7L44.3 48.9L43.9 49.0L43.6 49.0L43.2 48.9L42.8 48.8L42.4 48.5L42.0 48.1L41.7 47.7L41.3 47.1L40.9 46.5L40.5 45.8L40.2 44.9L39.8 44.0L39.4 43.0L39.1 41.9L38.7 40.8L38.3 39.6L37.9 38.3L37.5 36.9L37.1 35.5L36.7 34.1L36.3 32.7L35.9 31.2L35.4 29.8L35.0 28.3L34.5 26.9L34.0 25.5L33.5 24.1L32.9 22.8L32.3 21.6L31.8 20.4L31.1 19.3L30.5 18.4L29.8 17.5L29.1 16.8L28.4 16.1L27.7 15.6L26.9 15.3L26.1 15.1L25.3 15.0L24.5 15.1L23.7 15.3L22.9 15.6L22.0 16.1L21.2 16.8L20.4 17.5L19.6 18.4L18.8 19.4L18.0 20.5L17.2 21.7L16.5 22.9L15.8 24.3L15.2 25.7L14.6 27.1L14.0 28.6" fill="none" stroke="#f5f7f3" stroke-width="5" stroke-linecap="round" stroke-linejoin="round"/>
  <circle cx="14.0" cy="28.6" r="4.6" fill="#f5f7f3"/>
</svg>