<svg xmlns="http://www.w3.org/2000/svg" viewBox="0 0 200 200" width="200" height="200" role="img" aria-label="ResDAG">
  <defs>
    <linearGradient id="rdg" x1="0" y1="0" x2="1" y2="1">
      <stop offset="0%" stop-color="#6c3bd9"/>
      <stop offset="100%" stop-color="#ec4899"/>
    </linearGradient>
    <radialGradient id="node" cx="0.5" cy="0.5" r="0.5">
      <stop offset="0%" stop-color="#ffffff" stop-opacity="0.95"/>
      <stop offset="100%" stop-color="#ffffff" stop-opacity="0.55"/>
    </radialGradient>
  </defs>
  <rect x="6" y="6" width="188" height="188" rx="40" fill="url(#rdg)"/>
  <g stroke="#ffffff" stroke-opacity="0.55" stroke-width="2.2" fill="none">
    <path d="M48 60 Q 100 30 152 60"/>
    <path d="M48 60 Q 70 110 100 140"/>
    <path d="M152 60 Q 130 110 100 140"/>
    <path d="M48 60 Q 100 100 152 60"/>
    <path d="M48 60 L 100 140"/>
    <path d="M152 60 L 100 140"/>
    <path d="M100 100 L 100 140"/>
    <path d="M48 60 L 100 100"/>
    <path d="M152 60 L 100 100"/>
  </g>
  <g fill="url(#node)" stroke="#ffffff" stroke-opacity="0.9" stroke-width="1.4">
    <circle cx="48" cy="60" r="10"/>
    <circle cx="100" cy="100" r="12"/>
    <circle cx="152" cy="60" r="10"/>
    <circle cx="100" cy="140" r="13"/>
  </g>
</svg>
