<svg xmlns="http://www.w3.org/2000/svg" viewBox="0 0 200 200" width="200" height="200" role="img" aria-label="ResDAG">
  <defs>
    <linearGradient id="rdg" x1="0" y1="0" x2="1" y2="1">
      <stop offset="0%"  stop-color="#3d4f87"/>
      <stop offset="100%" stop-color="#2a376e"/>
    </linearGradient>
  </defs>
  <rect x="6" y="6" width="188" height="188" rx="34" fill="url(#rdg)"/>
  <g stroke="#ffffff" stroke-opacity="0.55" stroke-width="2" fill="none">
    <path d="M50 62 Q 100 32 150 62"/>
    <path d="M50 62 Q 72 110 100 138"/>
    <path d="M150 62 Q 128 110 100 138"/>
    <path d="M50 62 L 150 62"/>
    <path d="M50 62 L 100 138"/>
    <path d="M150 62 L 100 138"/>
    <path d="M50 62 L 100 100"/>
    <path d="M150 62 L 100 100"/>
    <path d="M100 100 L 100 138"/>
  </g>
  <g fill="#ffffff" stroke="#ffffff" stroke-opacity="0.9" stroke-width="1.2">
    <circle cx="50"  cy="62"  r="9"/>
    <circle cx="100" cy="100" r="10"/>
    <circle cx="150" cy="62"  r="9"/>
    <circle cx="100" cy="138" r="11" fill="#c2410c"/>
  </g>
</svg>
